<svg width="759" height="594" viewBox="0 0 759 594" fill="none" xmlns="http://www.w3.org/2000/svg">
<g opacity="0.4">
<path d="M293.189 0.491272V107.378C323.739 110.369 352.909 121.571 377.608 139.796C402.307 158.021 421.614 182.591 433.482 210.899C445.35 239.208 449.336 270.2 445.017 300.59C440.699 330.98 428.237 359.635 408.954 383.517C389.67 407.399 364.283 425.618 335.485 436.241C306.686 446.865 275.55 449.497 245.377 443.859C215.203 438.222 187.118 424.524 164.099 404.219C141.079 383.913 123.983 357.757 114.624 328.523C114.613 328.498 114.606 328.472 114.604 328.444C113.97 326.483 113.376 324.508 112.821 322.52C112.286 320.578 111.771 318.607 111.295 316.635C111.186 316.189 111.077 315.743 110.978 315.298C110.73 314.248 110.502 313.198 110.278 312.148C110.11 311.336 109.941 310.523 109.778 309.701C109.578 308.73 109.402 307.759 109.223 306.778C109.084 305.985 108.946 305.193 108.817 304.4C108.717 303.806 108.629 303.221 108.54 302.627C108.431 301.904 108.322 301.181 108.223 300.457C108.164 300.057 108.114 299.664 108.065 299.268C107.965 298.545 107.865 297.831 107.788 297.108C107.659 296.088 107.55 295.067 107.451 294.037C107.402 293.621 107.362 293.205 107.322 292.779C107.243 291.887 107.164 290.986 107.094 290.094C107.005 289.004 106.926 287.905 106.866 286.805V286.726C106.816 285.874 106.766 285.026 106.737 284.17C106.717 283.863 106.707 283.556 106.697 283.249C106.667 282.526 106.638 281.793 106.628 281.06C106.608 280.555 106.598 280.06 106.598 279.554C106.578 278.594 106.568 277.633 106.568 276.671C106.506 232.549 123.651 190.142 154.36 158.46L79.0093 83.1013C28.2844 134.751 -0.0941759 204.277 0.000234813 276.67C0.000234813 278.89 0.0266087 281.099 0.0792753 283.298C0.0992753 284.398 0.139251 285.498 0.179251 286.598C0.209251 287.47 0.238227 288.342 0.279227 289.213C0.299227 289.57 0.309238 289.926 0.328238 290.283C0.358238 290.937 0.397247 291.591 0.437247 292.245C0.487247 293.156 0.537253 294.068 0.606253 294.969C0.646253 295.682 0.69523 296.405 0.74523 297.129C0.78523 297.674 0.824258 298.219 0.874258 298.754C0.943258 299.654 1.02322 300.567 1.10222 301.469C1.18122 302.41 1.27025 303.351 1.36925 304.283C1.44825 305.135 1.53725 305.983 1.62725 306.839C1.71725 307.695 1.81524 308.553 1.92724 309.405C2.04624 310.485 2.18526 311.555 2.32726 312.625C2.46926 313.695 2.61424 314.765 2.76324 315.825C3.3679 320.092 4.06794 324.325 4.86327 328.525C29.1253 456.534 141.6 553.336 276.673 553.336C429.473 553.336 553.337 429.468 553.337 276.672C553.33 129.411 438.298 9.03127 293.189 0.491272Z" fill="#EAF5FF"/>
<path d="M112.821 322.52C112.286 320.578 111.771 318.607 111.295 316.635C111.186 316.189 111.077 315.743 110.978 315.298C110.73 314.248 110.502 313.198 110.278 312.148C110.11 311.336 109.941 310.523 109.778 309.701C109.578 308.73 109.402 307.759 109.223 306.778C109.084 305.985 108.946 305.193 108.817 304.4C108.717 303.806 108.629 303.221 108.54 302.627C108.431 301.904 108.322 301.181 108.223 300.457C108.164 300.057 108.104 299.664 108.065 299.268C107.956 298.555 107.865 297.831 107.788 297.108C107.659 296.088 107.55 295.067 107.451 294.037C107.402 293.621 107.362 293.205 107.322 292.779C107.233 291.887 107.164 290.996 107.094 290.094C107.005 289.004 106.926 287.905 106.866 286.805V286.726C106.807 285.874 106.766 285.026 106.737 284.17C106.717 283.863 106.707 283.556 106.697 283.249C106.667 282.526 106.638 281.793 106.628 281.06C106.608 280.56 106.598 280.06 106.598 279.554C106.578 278.594 106.568 277.633 106.568 276.671C106.506 232.549 123.651 190.142 154.36 158.46L79.0093 83.1063C28.2855 134.755 -0.0929762 204.279 0.000228864 276.67C0.000228864 278.89 0.0266027 281.099 0.0792694 283.298C0.0992694 284.398 0.139245 285.498 0.179245 286.598C0.209245 287.47 0.238221 288.342 0.279221 289.214C0.299221 289.571 0.309232 289.927 0.328232 290.284C0.358232 290.938 0.397241 291.592 0.437241 292.246C0.487241 293.157 0.537247 294.069 0.606247 294.97C0.646247 295.683 0.695224 296.407 0.745224 297.13C0.785224 297.675 0.824252 298.22 0.874252 298.755C0.943252 299.655 1.02322 300.568 1.10222 301.47C1.18122 302.411 1.27025 303.342 1.36925 304.284C1.44825 305.136 1.53724 305.984 1.62724 306.84C1.71724 307.696 1.81523 308.554 1.92723 309.406C2.04623 310.486 2.18526 311.556 2.32726 312.626C2.46926 313.696 2.61423 314.766 2.76323 315.826C3.3679 320.093 4.06793 324.326 4.86327 328.526H114.633C114.622 328.501 114.615 328.475 114.613 328.447C113.971 326.482 113.386 324.511 112.821 322.52Z" fill="#ACD4F3"/>
<path d="M166.719 146.89C197.409 120.809 236.386 106.515 276.661 106.572V0.000271786C208.118 -0.0959292 141.998 25.3494 91.2023 71.3713L166.719 146.89Z" fill="#FED300"/>
<path d="M54.7103 190.12V192.104H39.4893V190.523L48.5103 181.688C49.6469 180.572 50.4116 179.611 50.8043 178.805C51.2176 177.979 51.4243 177.152 51.4243 176.325C51.4243 175.044 50.9799 174.052 50.0913 173.349C49.2233 172.626 47.9729 172.264 46.3403 172.264C43.7983 172.264 41.8246 173.07 40.4193 174.682L38.8383 173.318C39.6856 172.326 40.7603 171.562 42.0623 171.024C43.3849 170.487 44.8729 170.218 46.5263 170.218C48.7376 170.218 50.4839 170.745 51.7653 171.799C53.0673 172.833 53.7183 174.259 53.7183 176.077C53.7183 177.193 53.4703 178.268 52.9743 179.301C52.4783 180.335 51.5379 181.523 50.1533 182.866L42.7753 190.12H54.7103ZM63.2154 179.301C66.3567 179.301 68.6404 179.87 70.0664 181.006C71.5131 182.122 72.2364 183.693 72.2364 185.718C72.2364 186.979 71.9367 188.105 71.3374 189.097C70.7587 190.089 69.8804 190.875 68.7024 191.453C67.5244 192.011 66.0777 192.29 64.3624 192.29C62.8124 192.29 61.3347 192.042 59.9294 191.546C58.5447 191.03 57.4287 190.348 56.5814 189.5L57.6664 187.733C58.3897 188.477 59.3404 189.087 60.5184 189.562C61.6964 190.017 62.9674 190.244 64.3314 190.244C66.1294 190.244 67.5141 189.841 68.4854 189.035C69.4774 188.229 69.9734 187.155 69.9734 185.811C69.9734 184.323 69.4154 183.197 68.2994 182.432C67.2041 181.668 65.3441 181.285 62.7194 181.285H58.1004L59.2164 170.404H71.0894V172.388H61.1694L60.4254 179.301H63.2154ZM91.624 175.798V190.12C91.624 192.89 90.942 194.936 89.578 196.258C88.2347 197.602 86.199 198.273 83.471 198.273C81.9623 198.273 80.526 198.046 79.162 197.591C77.8187 197.157 76.7233 196.548 75.876 195.762L76.992 194.088C77.7773 194.791 78.728 195.339 79.844 195.731C80.9807 196.124 82.169 196.32 83.409 196.32C85.4757 196.32 86.9947 195.835 87.966 194.863C88.9373 193.913 89.423 192.425 89.423 190.399V188.322C88.741 189.356 87.842 190.141 86.726 190.678C85.6307 191.216 84.4113 191.484 83.068 191.484C81.5387 191.484 80.1437 191.154 78.883 190.492C77.643 189.81 76.6613 188.87 75.938 187.671C75.2353 186.452 74.884 185.078 74.884 183.548C74.884 182.019 75.2353 180.655 75.938 179.456C76.6613 178.258 77.643 177.328 78.883 176.666C80.123 176.005 81.518 175.674 83.068 175.674C84.4527 175.674 85.703 175.953 86.819 176.511C87.935 177.069 88.834 177.875 89.516 178.929V175.798H91.624ZM83.285 189.531C84.463 189.531 85.5273 189.283 86.478 188.787C87.4287 188.271 88.1623 187.558 88.679 186.648C89.2163 185.739 89.485 184.706 89.485 183.548C89.485 182.391 89.2163 181.368 88.679 180.479C88.1623 179.57 87.4287 178.867 86.478 178.371C85.548 177.855 84.4837 177.596 83.285 177.596C82.107 177.596 81.0427 177.844 80.092 178.34C79.162 178.836 78.4283 179.539 77.891 180.448C77.3743 181.358 77.116 182.391 77.116 183.548C77.116 184.706 77.3743 185.739 77.891 186.648C78.4283 187.558 79.162 188.271 80.092 188.787C81.0427 189.283 82.107 189.531 83.285 189.531ZM105.002 192.352C103.225 192.352 101.623 191.991 100.197 191.267C98.7916 190.523 97.6859 189.5 96.8799 188.198C96.0946 186.896 95.7019 185.419 95.7019 183.765C95.7019 182.112 96.0946 180.634 96.8799 179.332C97.6859 178.03 98.7916 177.018 100.197 176.294C101.623 175.55 103.225 175.178 105.002 175.178C106.759 175.178 108.288 175.55 109.59 176.294C110.913 177.018 111.874 178.061 112.473 179.425L108.722 181.44C107.854 179.911 106.604 179.146 104.971 179.146C103.71 179.146 102.667 179.56 101.84 180.386C101.013 181.213 100.6 182.339 100.6 183.765C100.6 185.191 101.013 186.318 101.84 187.144C102.667 187.971 103.71 188.384 104.971 188.384C106.624 188.384 107.875 187.62 108.722 186.09L112.473 188.136C111.874 189.459 110.913 190.492 109.59 191.236C108.288 191.98 106.759 192.352 105.002 192.352ZM121.984 175.178C124.568 175.178 126.552 175.798 127.936 177.038C129.321 178.258 130.013 180.107 130.013 182.587V192.104H125.487V190.027C124.578 191.577 122.883 192.352 120.403 192.352C119.122 192.352 118.006 192.135 117.055 191.701C116.125 191.267 115.412 190.668 114.916 189.903C114.42 189.139 114.172 188.271 114.172 187.299C114.172 185.749 114.751 184.53 115.908 183.641C117.086 182.753 118.895 182.308 121.333 182.308H125.177C125.177 181.254 124.857 180.448 124.216 179.89C123.576 179.312 122.615 179.022 121.333 179.022C120.445 179.022 119.566 179.167 118.698 179.456C117.851 179.725 117.128 180.097 116.528 180.572L114.792 177.193C115.702 176.553 116.787 176.057 118.047 175.705C119.329 175.354 120.641 175.178 121.984 175.178ZM121.612 189.097C122.439 189.097 123.173 188.911 123.813 188.539C124.454 188.147 124.909 187.578 125.177 186.834V185.129H121.86C119.876 185.129 118.884 185.78 118.884 187.082C118.884 187.702 119.122 188.198 119.597 188.57C120.093 188.922 120.765 189.097 121.612 189.097ZM139.009 177.627C139.588 176.821 140.363 176.212 141.334 175.798C142.326 175.385 143.463 175.178 144.744 175.178V179.642C144.207 179.601 143.845 179.58 143.659 179.58C142.275 179.58 141.19 179.973 140.404 180.758C139.619 181.523 139.226 182.68 139.226 184.23V192.104H134.39V175.426H139.009V177.627ZM157.478 175.178C159.028 175.178 160.433 175.54 161.694 176.263C162.975 176.966 163.977 177.968 164.701 179.27C165.424 180.552 165.786 182.05 165.786 183.765C165.786 185.481 165.424 186.989 164.701 188.291C163.977 189.573 162.975 190.575 161.694 191.298C160.433 192.001 159.028 192.352 157.478 192.352C155.184 192.352 153.437 191.629 152.239 190.182V192.104H147.62V169.102H152.456V177.193C153.675 175.85 155.349 175.178 157.478 175.178ZM156.641 188.384C157.881 188.384 158.893 187.971 159.679 187.144C160.485 186.297 160.888 185.171 160.888 183.765C160.888 182.36 160.485 181.244 159.679 180.417C158.893 179.57 157.881 179.146 156.641 179.146C155.401 179.146 154.378 179.57 153.572 180.417C152.786 181.244 152.394 182.36 152.394 183.765C152.394 185.171 152.786 186.297 153.572 187.144C154.378 187.971 155.401 188.384 156.641 188.384ZM174.634 192.352C173.249 192.352 171.896 192.187 170.573 191.856C169.25 191.505 168.196 191.071 167.411 190.554L169.023 187.082C169.767 187.558 170.666 187.95 171.72 188.26C172.774 188.55 173.807 188.694 174.82 188.694C176.866 188.694 177.889 188.188 177.889 187.175C177.889 186.7 177.61 186.359 177.052 186.152C176.494 185.946 175.636 185.77 174.479 185.625C173.115 185.419 171.989 185.181 171.1 184.912C170.211 184.644 169.436 184.168 168.775 183.486C168.134 182.804 167.814 181.833 167.814 180.572C167.814 179.518 168.114 178.588 168.713 177.782C169.333 176.956 170.222 176.315 171.379 175.86C172.557 175.406 173.942 175.178 175.533 175.178C176.711 175.178 177.879 175.313 179.036 175.581C180.214 175.829 181.185 176.181 181.95 176.635L180.338 180.076C178.871 179.25 177.269 178.836 175.533 178.836C174.5 178.836 173.725 178.981 173.208 179.27C172.691 179.56 172.433 179.932 172.433 180.386C172.433 180.903 172.712 181.265 173.27 181.471C173.828 181.678 174.717 181.874 175.936 182.06C177.3 182.288 178.416 182.536 179.284 182.804C180.152 183.052 180.906 183.517 181.547 184.199C182.188 184.881 182.508 185.832 182.508 187.051C182.508 188.085 182.198 189.004 181.578 189.81C180.958 190.616 180.049 191.247 178.85 191.701C177.672 192.135 176.267 192.352 174.634 192.352Z" fill="#4099F1"/>
<path d="M167.437 66.3463C165.817 66.3463 164.367 65.9163 163.087 65.0563C161.827 64.1963 160.837 62.9663 160.117 61.3663C159.417 59.7463 159.067 57.8463 159.067 55.6663C159.067 53.4863 159.417 51.5963 160.117 49.9963C160.837 48.3763 161.827 47.1363 163.087 46.2763C164.367 45.4163 165.817 44.9863 167.437 44.9863C169.057 44.9863 170.497 45.4163 171.757 46.2763C173.037 47.1363 174.037 48.3763 174.757 49.9963C175.477 51.5963 175.837 53.4863 175.837 55.6663C175.837 57.8463 175.477 59.7463 174.757 61.3663C174.037 62.9663 173.037 64.1963 171.757 65.0563C170.497 65.9163 169.057 66.3463 167.437 66.3463ZM167.437 64.3663C168.657 64.3663 169.727 64.0263 170.647 63.3463C171.587 62.6663 172.317 61.6763 172.837 60.3763C173.357 59.0763 173.617 57.5063 173.617 55.6663C173.617 53.8263 173.357 52.2563 172.837 50.9563C172.317 49.6563 171.587 48.6663 170.647 47.9863C169.727 47.3063 168.657 46.9663 167.437 46.9663C166.217 46.9663 165.137 47.3063 164.197 47.9863C163.277 48.6663 162.557 49.6563 162.037 50.9563C161.517 52.2563 161.257 53.8263 161.257 55.6663C161.257 57.5063 161.517 59.0763 162.037 60.3763C162.557 61.6763 163.277 62.6663 164.197 63.3463C165.137 64.0263 166.217 64.3663 167.437 64.3663ZM180.228 66.3163C179.788 66.3163 179.408 66.1563 179.088 65.8363C178.788 65.5163 178.638 65.1263 178.638 64.6663C178.638 64.2063 178.788 63.8263 179.088 63.5263C179.408 63.2063 179.788 63.0463 180.228 63.0463C180.668 63.0463 181.048 63.2063 181.368 63.5263C181.688 63.8263 181.848 64.2063 181.848 64.6663C181.848 65.1263 181.688 65.5163 181.368 65.8363C181.048 66.1563 180.668 66.3163 180.228 66.3163ZM192.399 54.1663C194.599 54.2863 196.269 54.8863 197.409 55.9663C198.569 57.0263 199.149 58.4163 199.149 60.1363C199.149 61.3363 198.859 62.4063 198.279 63.3463C197.699 64.2663 196.839 64.9963 195.699 65.5363C194.559 66.0763 193.169 66.3463 191.529 66.3463C190.009 66.3463 188.569 66.1063 187.209 65.6263C185.869 65.1263 184.789 64.4663 183.969 63.6463L185.019 61.9363C185.719 62.6563 186.649 63.2463 187.809 63.7063C188.969 64.1463 190.209 64.3663 191.529 64.3663C193.249 64.3663 194.579 63.9963 195.519 63.2563C196.459 62.4963 196.929 61.4563 196.929 60.1363C196.929 58.8363 196.459 57.8163 195.519 57.0763C194.579 56.3363 193.159 55.9663 191.259 55.9663H189.759V54.3763L195.579 47.0863H184.839V45.1663H198.339V46.6963L192.399 54.1663ZM218.212 50.3863V64.2463C218.212 66.9263 217.552 68.9063 216.232 70.1863C214.932 71.4863 212.962 72.1363 210.322 72.1363C208.862 72.1363 207.472 71.9163 206.152 71.4763C204.852 71.0563 203.792 70.4663 202.972 69.7063L204.052 68.0863C204.812 68.7663 205.732 69.2963 206.812 69.6763C207.912 70.0563 209.062 70.2463 210.262 70.2463C212.262 70.2463 213.732 69.7763 214.672 68.8363C215.612 67.9163 216.082 66.4763 216.082 64.5163V62.5063C215.422 63.5063 214.552 64.2663 213.472 64.7863C212.412 65.3063 211.232 65.5663 209.932 65.5663C208.452 65.5663 207.102 65.2463 205.882 64.6063C204.682 63.9463 203.732 63.0363 203.032 61.8763C202.352 60.6963 202.012 59.3663 202.012 57.8863C202.012 56.4063 202.352 55.0863 203.032 53.9263C203.732 52.7663 204.682 51.8663 205.882 51.2263C207.082 50.5863 208.432 50.2663 209.932 50.2663C211.272 50.2663 212.482 50.5363 213.562 51.0763C214.642 51.6163 215.512 52.3963 216.172 53.4163V50.3863H218.212ZM210.142 63.6763C211.282 63.6763 212.312 63.4363 213.232 62.9563C214.152 62.4563 214.862 61.7663 215.362 60.8863C215.882 60.0063 216.142 59.0063 216.142 57.8863C216.142 56.7663 215.882 55.7763 215.362 54.9163C214.862 54.0363 214.152 53.3563 213.232 52.8763C212.332 52.3763 211.302 52.1263 210.142 52.1263C209.002 52.1263 207.972 52.3663 207.052 52.8463C206.152 53.3263 205.442 54.0063 204.922 54.8863C204.422 55.7663 204.172 56.7663 204.172 57.8863C204.172 59.0063 204.422 60.0063 204.922 60.8863C205.442 61.7663 206.152 62.4563 207.052 62.9563C207.972 63.4363 209.002 63.6763 210.142 63.6763ZM228.489 50.3863H232.629V53.9863H228.609V66.1663H223.929V53.9863H221.439V50.3863H223.929V49.6663C223.929 47.8263 224.469 46.3663 225.549 45.2863C226.649 44.2063 228.189 43.6663 230.169 43.6663C230.869 43.6663 231.529 43.7463 232.149 43.9063C232.789 44.0463 233.319 44.2563 233.739 44.5363L232.509 47.9263C231.969 47.5463 231.339 47.3563 230.619 47.3563C229.199 47.3563 228.489 48.1363 228.489 49.6963V50.3863ZM241.177 49.7863C243.677 49.7863 245.597 50.3863 246.937 51.5863C248.277 52.7663 248.947 54.5563 248.947 56.9563V66.1663H244.567V64.1563C243.687 65.6563 242.047 66.4063 239.647 66.4063C238.407 66.4063 237.327 66.1963 236.407 65.7763C235.507 65.3563 234.817 64.7763 234.337 64.0363C233.857 63.2963 233.617 62.4563 233.617 61.5163C233.617 60.0163 234.177 58.8363 235.297 57.9763C236.437 57.1163 238.187 56.6863 240.547 56.6863H244.267C244.267 55.6663 243.957 54.8863 243.337 54.3463C242.717 53.7863 241.787 53.5063 240.547 53.5063C239.687 53.5063 238.837 53.6463 237.997 53.9263C237.177 54.1863 236.477 54.5463 235.897 55.0063L234.217 51.7363C235.097 51.1163 236.147 50.6363 237.367 50.2963C238.607 49.9563 239.877 49.7863 241.177 49.7863ZM240.817 63.2563C241.617 63.2563 242.327 63.0763 242.947 62.7163C243.567 62.3363 244.007 61.7863 244.267 61.0663V59.4163H241.057C239.137 59.4163 238.177 60.0463 238.177 61.3063C238.177 61.9063 238.407 62.3863 238.867 62.7463C239.347 63.0863 239.997 63.2563 240.817 63.2563ZM263.593 65.3863C263.133 65.7263 262.563 65.9863 261.883 66.1663C261.223 66.3263 260.523 66.4063 259.783 66.4063C257.863 66.4063 256.373 65.9163 255.313 64.9363C254.273 63.9563 253.753 62.5163 253.753 60.6163V53.9863H251.263V50.3863H253.753V46.4563H258.433V50.3863H262.453V53.9863H258.433V60.5563C258.433 61.2363 258.603 61.7663 258.943 62.1463C259.303 62.5063 259.803 62.6863 260.443 62.6863C261.183 62.6863 261.813 62.4863 262.333 62.0863L263.593 65.3863Z" fill="#D19500"/>
<path d="M228.973 319.074C228.973 319.074 181.419 341.365 143.273 327.495C105.127 313.625 70.1269 298.269 44.7809 338.145C19.4349 378.021 23.236 449.779 56.256 506.696C89.276 563.613 101.932 574.103 125.933 575.752C149.934 577.401 155.195 568.126 169.033 566.073C182.871 564.02 198.911 572.594 214.312 572.644C229.713 572.694 243.717 556.744 243.717 556.744L228.973 319.074Z" fill="url(#paint0_linear_303_1250)"/>
<path d="M226.194 327.495C229.631 368.062 194.25 423.348 207.023 445.062C219.796 466.776 203.217 549.517 166.944 556.74C148.1 560.493 139.453 568.748 135.482 575.818C151.682 574.797 157.258 567.818 169.035 566.072C182.87 564.019 198.913 572.593 214.314 572.643C229.715 572.693 243.719 556.743 243.719 556.743L229.05 320.335C226.88 320.483 225.794 322.762 226.194 327.495Z" fill="#6AD419"/>
<path opacity="0.3" d="M97.291 520.49C67.653 527.727 66.991 487.49 74.423 467.19C81.855 446.89 44.702 412.206 60.66 406.1C76.618 399.994 75.909 435.983 89.306 421.122C102.703 406.261 61.048 373.568 66.006 348.696C69.906 329.129 104.759 321.407 119.453 319.004C90.699 309.604 64.753 306.75 44.79 338.151C19.439 378.021 23.236 449.779 56.256 506.696C89.276 563.613 101.932 574.103 125.933 575.752C129.155 575.988 132.389 576.007 135.614 575.81C135.828 550.641 118.433 515.327 97.291 520.49Z" fill="url(#paint1_linear_303_1250)"/>
<path d="M165.795 288.923C165.795 288.923 180.695 250.137 211.329 245.823C241.963 241.509 277.773 245.823 277.773 245.823C277.773 245.823 266.123 276.456 237.648 298.023C209.173 319.59 177.571 315.223 168.994 309.645C160.417 304.067 165.795 288.923 165.795 288.923Z" fill="url(#paint2_linear_303_1250)"/>
<path d="M165.883 335.132C178.728 334.521 191.473 332.57 203.912 329.31C223.398 324.03 227.436 335.132 194.646 343.761C161.856 352.39 142.946 348.938 126.118 339.23C109.29 329.522 113.818 325.209 124.392 324.561C134.966 323.913 147.447 336.939 165.883 335.132Z" fill="#6AD419"/>
<path d="M162.288 340.596C162.288 340.596 165.74 344.623 168.472 340.596C170.109 325.751 169.722 310.753 167.322 296.013C165.093 283.278 160.97 274.551 157.732 269.297C157.207 268.453 156.512 267.727 155.692 267.165C154.872 266.604 153.944 266.218 152.967 266.034C151.991 265.85 150.986 265.87 150.018 266.094C149.049 266.318 148.138 266.74 147.341 267.335L147.117 267.501C146.356 268.066 145.714 268.776 145.229 269.59C144.745 270.404 144.426 271.307 144.293 272.245C144.16 273.183 144.214 274.139 144.452 275.056C144.691 275.973 145.109 276.834 145.683 277.588C150.938 284.767 154.97 292.767 157.613 301.262C161.65 313.959 163.237 327.307 162.288 340.596Z" fill="url(#paint3_linear_303_1250)"/>
<path d="M53.593 409.777C53.7166 409.777 53.8401 409.771 53.963 409.757C54.4076 409.71 54.8386 409.575 55.2311 409.361C55.6236 409.146 55.9701 408.857 56.2505 408.508C56.5309 408.16 56.7399 407.76 56.8654 407.331C56.9909 406.901 57.0305 406.452 56.982 406.007C54.958 387.281 56.922 369.983 62.371 358.547C62.7594 357.732 62.8081 356.796 62.5065 355.945C62.2048 355.094 61.5775 354.398 60.7625 354.01C59.9475 353.621 59.0116 353.572 58.1606 353.874C57.3097 354.176 56.6134 354.803 56.225 355.618C50.248 368.161 48.057 386.793 50.213 406.738C50.3021 407.572 50.6965 408.344 51.3205 408.905C51.9445 409.466 52.7539 409.777 53.593 409.777Z" fill="white"/>
<path d="M69.035 348.519C69.6778 348.519 70.3073 348.336 70.85 347.992C72.9902 346.516 75.5324 345.734 78.132 345.752C79.0348 345.752 79.9006 345.393 80.539 344.755C81.1774 344.117 81.536 343.251 81.536 342.348C81.536 341.445 81.1774 340.579 80.539 339.941C79.9006 339.303 79.0348 338.944 78.132 338.944C74.2455 338.925 70.4425 340.071 67.214 342.235C66.5898 342.629 66.1106 343.216 65.8486 343.906C65.5866 344.596 65.5561 345.353 65.7616 346.062C65.9671 346.771 66.3974 347.394 66.9878 347.837C67.5782 348.28 68.2968 348.52 69.035 348.519Z" fill="white"/>
<path d="M342.789 77.565C342.789 77.565 334.235 55.3 316.65 52.823C299.065 50.346 278.508 52.823 278.508 52.823C283.532 64.5977 291.456 74.908 301.542 82.792C317.889 95.176 336.029 92.667 340.953 89.463C345.877 86.259 342.789 77.565 342.789 77.565Z" fill="url(#paint4_linear_303_1250)"/>
<path d="M278.511 216.042C278.511 216.042 253.743 187.807 257.211 142.73C260.679 97.653 288.411 92.451 302.037 95.671C315.663 98.891 333.987 106.571 349.343 101.371C364.699 96.171 382.532 84.777 401.355 96.665C420.178 108.553 424.802 136.623 422.155 161.065C419.508 185.507 401.68 216.049 390.782 224.099L278.511 216.042Z" fill="url(#paint5_linear_303_1250)"/>
<path opacity="0.3" d="M401.355 96.661C392.336 90.961 383.544 90.619 375.142 92.371C384.399 99.958 371.456 121.599 375.267 127.043C379.89 133.643 390.128 118.457 387.401 133.317C384.674 148.177 381.871 154.452 390.245 154.783C398.619 155.114 394.42 168.653 383.625 193.75C375.565 212.487 353.534 218.707 342.883 220.657L390.783 224.091C401.683 216.042 419.513 185.491 422.156 161.057C424.799 136.623 420.179 108.549 401.355 96.661Z" fill="url(#paint6_linear_303_1250)"/>
<path d="M401.48 161.298C401.39 161.298 401.3 161.293 401.211 161.283C400.887 161.249 400.573 161.151 400.288 160.995C400.002 160.839 399.749 160.629 399.545 160.375C399.341 160.122 399.188 159.831 399.097 159.518C399.005 159.206 398.976 158.879 399.011 158.555C400.483 144.931 399.055 132.346 395.09 124.026C394.944 123.732 394.857 123.411 394.836 123.083C394.815 122.755 394.859 122.426 394.966 122.115C395.073 121.804 395.241 121.518 395.46 121.273C395.679 121.027 395.945 120.828 396.242 120.687C396.538 120.545 396.86 120.464 397.189 120.449C397.517 120.433 397.845 120.482 398.154 120.595C398.463 120.707 398.747 120.88 398.988 121.103C399.23 121.326 399.424 121.595 399.561 121.894C403.91 131.02 405.504 144.576 403.935 159.087C403.87 159.693 403.583 160.254 403.13 160.662C402.677 161.07 402.09 161.296 401.48 161.298Z" fill="white"/>
<path d="M315.138 218.668C311.713 215.094 310.185 208.49 303.938 209.932C295.352 211.913 302.947 202.997 298.324 195.402C293.701 187.807 288.087 197.383 279.83 191.769C271.573 186.155 293.37 163.039 286.435 158.821C279.5 154.603 278.835 173.275 270.254 166.34C264.238 161.482 264.139 131.656 264.619 114.24C260.876 121.225 258.15 130.51 257.21 142.732C253.743 187.809 278.51 216.044 278.51 216.044L315.138 218.668Z" fill="#C7283A"/>
<path d="M390.245 116.73C389.777 116.73 389.319 116.598 388.924 116.347C387.366 115.273 385.516 114.704 383.624 114.717C382.967 114.717 382.337 114.456 381.873 113.992C381.408 113.527 381.147 112.897 381.147 112.24C381.147 111.583 381.408 110.953 381.873 110.489C382.337 110.024 382.967 109.763 383.624 109.763C386.452 109.751 389.218 110.587 391.566 112.163C392.02 112.45 392.368 112.876 392.559 113.378C392.749 113.881 392.771 114.431 392.622 114.947C392.472 115.462 392.159 115.916 391.73 116.238C391.301 116.56 390.778 116.734 390.241 116.734L390.245 116.73Z" fill="white"/>
<path d="M342.738 104.092C335.365 103.741 328.048 102.621 320.908 100.749C309.722 97.717 307.408 104.092 326.227 109.049C345.046 114.006 355.907 112.021 365.566 106.449C375.225 100.877 372.625 98.4 366.557 98.028C360.489 97.656 353.322 105.129 342.738 104.092Z" fill="#C7283A"/>
<path d="M344.803 107.23C344.803 107.23 342.822 109.541 341.252 107.23C340.313 98.7081 340.535 90.0981 341.913 81.636C342.762 76.2219 344.63 71.018 347.418 66.3C347.719 65.8155 348.118 65.3989 348.589 65.0765C349.059 64.7542 349.592 64.5331 350.153 64.4272C350.713 64.3214 351.29 64.3331 351.846 64.4616C352.402 64.5902 352.925 64.8328 353.382 65.174L353.511 65.274C353.948 65.5981 354.316 66.0057 354.595 66.4733C354.873 66.9408 355.056 67.4589 355.132 67.9976C355.209 68.5362 355.178 69.0848 355.041 69.6113C354.904 70.1379 354.663 70.632 354.334 71.065C351.318 75.1865 349.003 79.7785 347.485 84.655C345.169 91.9421 344.258 99.603 344.803 107.23Z" fill="url(#paint7_linear_303_1250)"/>
<path d="M414.488 244.213H268.426C243.16 244.213 222.677 264.696 222.677 289.962V436.024C222.677 461.29 243.16 481.773 268.426 481.773H414.488C439.754 481.773 460.237 461.29 460.237 436.024V289.962C460.237 264.696 439.754 244.213 414.488 244.213Z" fill="url(#paint8_linear_303_1250)"/>
<path d="M341.457 460.244C395.167 460.244 438.708 416.703 438.708 362.993C438.708 309.283 395.167 265.742 341.457 265.742C287.747 265.742 244.206 309.283 244.206 362.993C244.206 416.703 287.747 460.244 341.457 460.244Z" fill="url(#paint9_linear_303_1250)"/>
<path d="M342.447 275.649H340.466V291.83H342.447V275.649Z" fill="#1D164D"/>
<path d="M280.396 300.531L278.995 301.932L290.437 313.375L291.838 311.974L280.396 300.531Z" fill="#1D164D"/>
<path d="M270.295 362.002H254.113V363.983H270.295V362.002Z" fill="#1D164D"/>
<path d="M290.437 412.612L278.995 424.054L280.396 425.455L291.837 414.013L290.437 412.612Z" fill="#1D164D"/>
<path d="M342.447 434.155H340.466V450.336H342.447V434.155Z" fill="#1D164D"/>
<path d="M392.477 412.612L391.076 414.013L402.518 425.454L403.919 424.054L392.477 412.612Z" fill="#1D164D"/>
<path d="M428.801 362.002H412.619V363.983H428.801V362.002Z" fill="#1D164D"/>
<path d="M402.518 300.531L391.076 311.973L392.477 313.374L403.919 301.931L402.518 300.531Z" fill="#1D164D"/>
<path d="M334.648 346.814L324.741 338.953L306.741 362.992L397.496 392.864L352.119 357.464C352.119 357.464 354.958 343.181 334.648 346.814Z" fill="#1D164D"/>
<path d="M387.401 232.14H295.513V243.905H387.401V232.14Z" fill="url(#paint10_linear_303_1250)"/>
<path d="M267.937 216.041H414.977C414.977 220.311 413.281 224.406 410.261 227.425C407.242 230.445 403.147 232.141 398.877 232.141H284.037C279.767 232.141 275.672 230.445 272.653 227.425C269.633 224.406 267.937 220.311 267.937 216.041V216.041Z" fill="url(#paint11_linear_303_1250)"/>
<path d="M759 244.461H508.578V574.593H759V244.461Z" fill="url(#paint12_linear_303_1250)"/>
<path d="M759 244.461H680.17V574.593H759V244.461Z" fill="url(#paint13_linear_303_1250)"/>
<path d="M719.585 244.461H680.17L699.878 209.739L719.586 175.017L739.294 209.739L759.002 244.461H719.585Z" fill="#4099F1"/>
<path d="M548.099 175.018H719.585L680.17 244.461H508.684L548.099 175.018Z" fill="url(#paint14_linear_303_1250)"/>
<path d="M719.585 149.267H548.099V175.018H719.585V149.267Z" fill="#ACD4F3"/>
<path opacity="0.3" d="M644.978 292.292H508.578V490.133H644.978V292.292Z" fill="white"/>
<path d="M169.036 414.579C169.036 414.579 153.515 395.921 151.369 385.684C149.223 375.447 145.425 373.465 136.178 369.997C131.859 368.483 127.409 367.372 122.885 366.679C121.774 366.499 120.638 366.562 119.554 366.865C118.471 367.168 117.466 367.703 116.61 368.433C115.754 369.162 115.066 370.07 114.596 371.092C114.125 372.114 113.883 373.226 113.885 374.351V379.061C113.9 382.672 114.75 386.231 116.368 389.46C117.986 392.689 120.328 395.5 123.212 397.674C130.9 403.532 140.668 413.729 141.461 428.104C142.782 452.061 137.379 478.904 169.035 511.668C200.691 544.432 257.084 566.844 313.368 573.435C369.652 580.026 466.273 558.235 511.584 514.144C556.895 470.053 560.09 455.363 559.984 440.832C559.878 426.301 560.368 417.055 565.322 411.937C565.322 411.937 567.822 396.478 559.14 392.737C555.563 391.15 551.691 390.335 547.778 390.344C543.864 390.352 539.996 391.185 536.426 392.788C530.647 395.43 526.561 397.742 516.406 399.475C506.251 401.208 464.436 430.275 432.733 447.112C401.03 463.949 368.278 477.824 328.514 461.312C288.75 444.8 233.271 417.812 209.164 413.474C185.057 409.136 169.036 414.579 169.036 414.579Z" fill="#FED300"/>
<path opacity="0.3" d="M252.896 444.417C297.996 481.452 320.273 491.4 345.705 491.875C371.137 492.35 350.829 483.622 358.754 478.075C366.679 472.528 373.119 495.575 390.954 495.197C408.789 494.819 387.368 481.551 396.961 474.417C406.554 467.283 464.561 466.587 469.861 448.259C472.467 439.259 475.122 428.417 480.019 419.227C464.933 428.467 447.704 439.147 432.73 447.103C401.03 463.945 368.275 477.815 328.511 461.303C288.747 444.791 233.268 417.803 209.161 413.465C185.054 409.127 169.037 414.575 169.037 414.575C169.037 414.575 207.8 407.382 252.896 444.417Z" fill="white"/>
<path d="M559.98 440.828C559.869 426.298 560.364 417.051 565.318 411.933C565.318 411.933 566.869 402.298 563.251 396.398C561.68 405.798 555.245 412.429 549.257 413.465C543.269 414.501 551.613 422.996 544.678 438.59C537.743 454.184 505.527 456.255 492.071 485.905C478.615 515.555 472.357 508.527 468.027 491.87C463.697 475.213 406.31 524.378 374.832 541.57C343.354 558.762 302.616 522.394 236.269 521.07C169.922 519.746 151.369 469.553 155.991 447.758C160.613 425.963 154.34 406.809 138.819 395.132C127.61 386.7 132.589 375.552 136.219 370.006L136.173 369.988C131.854 368.474 127.404 367.363 122.88 366.67C121.769 366.49 120.633 366.553 119.549 366.856C118.466 367.159 117.461 367.694 116.605 368.424C115.749 369.153 115.061 370.061 114.591 371.083C114.12 372.105 113.878 373.217 113.88 374.342V379.052C113.895 382.663 114.745 386.222 116.363 389.451C117.981 392.68 120.323 395.491 123.207 397.665C130.895 403.523 140.663 413.72 141.456 428.095C142.777 452.052 137.374 478.895 169.03 511.659C200.686 544.423 257.079 566.835 313.363 573.426C369.647 580.017 466.268 558.226 511.579 514.135C556.89 470.044 560.091 455.363 559.98 440.828Z" fill="#EAAD03"/>
<path d="M149.319 379.267C146.907 374.336 143.048 372.574 136.177 369.997C131.858 368.483 127.408 367.372 122.884 366.679C121.339 366.425 119.753 366.647 118.337 367.315C116.922 367.983 115.742 369.066 114.956 370.42C116.09 380.269 130.637 382.685 140.471 382.051C145.807 381.706 148.224 380.42 149.319 379.267Z" fill="#1D164D"/>
<path d="M559.135 392.733C556.603 391.631 553.927 390.897 551.187 390.552C551.365 395.229 553.018 399.73 555.911 403.409L565.318 411.937C565.318 411.937 567.813 396.478 559.135 392.733Z" fill="#1D164D"/>
<path d="M139.6 524.346C163.73 560.177 148.188 579.274 123.208 587.914C98.228 596.554 69.555 593.241 55.808 581.043C42.061 568.845 51.1341 552.67 51.1341 552.67C57.9591 553.683 65.383 542.904 66.413 530.77C67.443 518.636 79.732 513.831 78.113 510.07C76.494 506.309 69.034 507.589 69.034 507.589C69.034 507.589 76.147 492.65 85.402 486.689C94.657 480.728 115.469 488.518 139.6 524.346Z" fill="url(#paint15_linear_303_1250)"/>
<path d="M116.569 584.727C109.613 588.477 104.429 590.099 105.489 580.171C106.549 570.243 104.508 563.78 100.624 562.437C96.74 561.094 100.177 565.876 90.924 569.19C84.147 571.618 95.998 581.352 70.959 580.854C51.617 580.47 51.135 552.673 51.135 552.673L51.129 552.678C51.017 552.878 42.145 568.92 55.808 581.041C69.557 593.241 98.22 596.547 123.208 587.912C124.131 587.593 125.041 587.259 125.937 586.912C122.51 585.182 120.082 582.831 116.569 584.727Z" fill="#C7283A"/>
<path opacity="0.3" d="M139.601 524.346C155.567 548.064 154.161 564.441 144.145 575.316C144.876 571.88 144.853 568.326 144.076 564.9C143.299 561.474 141.787 558.258 139.645 555.474C127.068 538.122 108.545 553.829 108.614 533.381C108.683 512.933 107.385 512.121 98.696 513.038C90.007 513.955 98.567 506.838 95.567 498.318C95.5221 498.172 95.4656 498.03 95.398 497.893C94.246 494.999 92.977 495.955 91.536 498.122C89.286 501.539 86.625 507.979 83.382 507.17C77.994 505.831 82.316 515.399 71.437 519.343C75.037 514.97 79.087 512.333 78.11 510.074C76.491 506.314 69.031 507.593 69.031 507.593C69.031 507.593 76.144 492.654 85.399 486.693C94.654 480.732 115.474 488.518 139.601 524.346Z" fill="url(#paint16_linear_303_1250)"/>
<path d="M57.248 523.317C57.248 523.317 53.479 522.183 50.016 517.237C46.553 512.291 45.385 512.343 44.288 514.284C43.191 516.225 45.774 524.323 55.772 528.362C55.772 528.362 46.634 540.836 51.134 552.674C57.959 553.686 65.384 542.9 66.412 530.774C67.44 518.648 79.728 513.834 78.112 510.074C76.496 506.314 69.028 507.595 69.028 507.595C69.028 507.595 61.871 509.855 57.248 523.317Z" fill="url(#paint17_linear_303_1250)"/>
<path d="M74.611 577.158C74.8335 577.264 75.0317 577.416 75.1934 577.602C75.355 577.788 75.4767 578.006 75.5507 578.241C75.6248 578.476 75.6497 578.724 75.6239 578.97C75.5981 579.215 75.5222 579.452 75.4009 579.667C75.2795 579.882 75.1153 580.069 74.9185 580.218C74.7216 580.367 74.4964 580.473 74.2566 580.531C74.0168 580.589 73.7677 580.597 73.5247 580.555C73.2817 580.512 73.05 580.421 72.844 580.285C71.981 579.798 68.472 575.752 68.472 575.752C68.472 575.752 73.747 576.67 74.611 577.158Z" fill="#FBDA91"/>
<path d="M85.319 561.234C85.5415 561.341 85.7397 561.492 85.9013 561.678C86.063 561.864 86.1846 562.082 86.2587 562.317C86.3327 562.552 86.3577 562.8 86.3319 563.046C86.3062 563.291 86.2302 563.528 86.1088 563.743C85.9875 563.958 85.8233 564.145 85.6265 564.294C85.4296 564.443 85.2044 564.549 84.9646 564.607C84.7249 564.665 84.4757 564.673 84.2327 564.631C83.9897 564.588 83.758 564.497 83.552 564.361C82.689 563.873 79.18 559.827 79.18 559.827C79.18 559.827 84.457 560.746 85.319 561.234Z" fill="#FBDA91"/>
<path d="M108.926 558.144C109.145 558.252 109.34 558.405 109.499 558.591C109.658 558.777 109.777 558.994 109.849 559.228C109.921 559.462 109.944 559.708 109.918 559.952C109.892 560.195 109.816 560.43 109.695 560.644C109.575 560.857 109.412 561.043 109.217 561.191C109.022 561.339 108.799 561.446 108.562 561.505C108.324 561.564 108.077 561.574 107.835 561.534C107.594 561.494 107.363 561.405 107.157 561.273C106.294 560.786 102.785 556.74 102.785 556.74C102.785 556.74 108.063 557.659 108.926 558.144Z" fill="#FBDA91"/>
<path d="M117.558 509.315C117.808 509.382 118.04 509.501 118.24 509.664C118.44 509.828 118.603 510.032 118.718 510.264C118.833 510.495 118.897 510.749 118.906 511.007C118.915 511.265 118.869 511.523 118.771 511.762C118.673 512.001 118.525 512.216 118.337 512.394C118.149 512.571 117.926 512.706 117.681 512.79C117.437 512.875 117.177 512.906 116.92 512.882C116.663 512.858 116.414 512.779 116.189 512.651C115.141 512.221 110.489 508.364 110.489 508.364C110.489 508.364 116.509 508.885 117.558 509.315Z" fill="#F9E2B2"/>
<path d="M115.119 535.029C115.342 535.135 115.541 535.286 115.704 535.472C115.866 535.658 115.989 535.876 116.063 536.112C116.138 536.348 116.163 536.596 116.137 536.842C116.112 537.088 116.036 537.326 115.914 537.541C115.793 537.756 115.628 537.944 115.43 538.093C115.233 538.241 115.007 538.348 114.767 538.406C114.526 538.463 114.277 538.471 114.033 538.428C113.79 538.384 113.558 538.292 113.352 538.155C112.489 537.668 108.98 533.622 108.98 533.622C108.98 533.622 114.255 534.54 115.119 535.029Z" fill="#F9E2B2"/>
<path d="M99.905 519.513C100.128 519.62 100.326 519.771 100.487 519.957C100.649 520.143 100.771 520.361 100.845 520.596C100.919 520.831 100.944 521.079 100.918 521.325C100.892 521.57 100.816 521.807 100.695 522.022C100.574 522.237 100.409 522.424 100.212 522.573C100.016 522.722 99.7904 522.828 99.5506 522.886C99.3108 522.944 99.0617 522.952 98.8187 522.91C98.5757 522.867 98.344 522.776 98.138 522.64C97.275 522.152 93.766 518.106 93.766 518.106C93.766 518.106 99.042 519.024 99.905 519.513Z" fill="#FBDA91"/>
<path d="M95.399 497.893C94.56 498.01 92.909 498.093 91.537 498.122C92.978 495.955 94.247 494.999 95.399 497.893Z" fill="#FBDA91"/>
<path d="M97.266 495.977C97.466 496.706 96.819 497.533 95.807 497.815C95.6725 497.848 95.5363 497.874 95.399 497.892C94.247 494.998 92.978 495.954 91.537 498.121C90.395 498.169 89.445 498.178 89.307 498.18C91.1684 497.061 93.0904 496.047 95.064 495.141C95.468 494.969 95.9228 494.96 96.3333 495.116C96.7437 495.272 97.0779 495.58 97.266 495.977Z" fill="#F9E2B2"/>
<path d="M118.439 574.051C118.662 574.157 118.861 574.308 119.024 574.494C119.186 574.68 119.309 574.898 119.383 575.134C119.458 575.37 119.483 575.618 119.457 575.864C119.432 576.11 119.356 576.348 119.234 576.563C119.113 576.778 118.948 576.966 118.75 577.115C118.553 577.263 118.327 577.37 118.087 577.428C117.846 577.485 117.597 577.493 117.353 577.45C117.11 577.406 116.878 577.314 116.672 577.177C115.809 576.69 112.3 572.643 112.3 572.643C112.3 572.643 117.576 573.562 118.439 574.051Z" fill="#FBDA91"/>
<path d="M71.431 519.343C71.358 519.337 68.389 519.128 63.89 527.262C59.334 535.497 59.277 542.294 56.168 543.762C54.431 544.582 52.431 541.369 51.004 538.376C49.481 543.028 49.5267 548.052 51.134 552.676C57.959 553.689 65.384 542.902 66.412 530.776C66.8493 526.534 68.6045 522.536 71.431 519.343Z" fill="#6BBC61"/>
<path d="M264.024 400.927L286.057 411.458V397.093L267.944 378.507C266.778 377.312 265.459 376.276 264.021 375.426L264.024 400.927Z" fill="url(#paint18_linear_303_1250)"/>
<path d="M275.784 404.151C271.697 401.922 273.555 397.835 268.478 395.482C264.878 393.812 264.146 390.092 264.025 388.068V400.927L286.058 411.458L280.058 390.931C276.609 394.616 275.784 404.151 275.784 404.151Z" fill="#C9E2F4"/>
<path d="M308.061 427.636C306.605 427.715 303.613 427.715 299.861 427.686L299.296 427.676C288.002 427.567 270.338 427.101 265.596 426.976C265.319 426.976 265.081 426.966 264.896 426.956L264.396 426.946V435.981H211.398L221.176 382.869L221.335 382.027C221.701 380.044 222.565 378.187 223.846 376.629C225.126 375.071 226.782 373.864 228.656 373.121L232.728 371.506H232.738L243.17 367.375L255.147 372.121L259.962 373.621C261.383 374.061 262.747 374.67 264.024 375.434V410.221L299.858 417.849C301.344 418.177 302.865 418.317 304.385 418.265C307.238 417.532 306.911 415.996 307.734 416.739C308.557 417.482 306.912 419.959 306.912 419.959C313.758 421.445 316.235 417.978 317.641 419.305C319.047 420.632 314.59 427.309 308.061 427.636Z" fill="url(#paint19_linear_303_1250)"/>
<path d="M264.391 426.942V435.977H252.77C254.187 434.6 254.355 433.203 251.264 432.262C243.091 429.785 239.376 430.528 238.385 423.346C237.394 416.164 223.316 417.005 224.02 405.513C224.262 400.631 223.936 395.737 223.049 390.93C223.524 392.003 224.084 393.037 224.723 394.021L242.14 420.81C243.128 422.326 244.456 423.59 246.019 424.504C247.581 425.417 249.334 425.953 251.14 426.071L264.391 426.942Z" fill="#4099F1"/>
<path d="M244.082 359.693C244.082 359.693 243.669 358.207 239.624 354.657C235.579 351.107 234.175 341.365 241.275 340.539C241.275 340.539 241.523 335.09 246.806 334.182C252.089 333.274 263.153 334.595 267.445 333.109C271.737 331.623 269.426 345.08 260.098 349.868C254.515 352.727 249.161 356.012 244.082 359.693Z" fill="url(#paint20_linear_303_1250)"/>
<path d="M262.167 344.09C262.167 344.09 262.332 357.712 261.667 361.757C261.002 365.802 258.282 366.546 255.145 365.803V372.119L252.173 376.453L243.173 367.371V355.153C243.173 355.153 239.623 353.935 240.49 350.777C241.357 347.619 244.948 347.929 246.063 351.459C246.777 350.522 247.267 349.434 247.496 348.279C247.725 347.123 247.687 345.93 247.384 344.792C247.384 344.792 255.062 348.3 262.167 344.09Z" fill="url(#paint21_linear_303_1250)"/>
<path d="M247.384 361.757C247.384 361.757 249.262 368.142 255.145 368.381V365.803C255.145 365.803 249.985 365.018 247.384 361.757Z" fill="#1D164D"/>
<path d="M264.391 435.978V562.978H250.991L235.908 476.428L201.818 562.978H187.998L211.398 435.978H264.391Z" fill="url(#paint22_linear_303_1250)"/>
<path d="M370.644 435.978C351.325 474.615 327.053 470.484 307.239 452.988C287.425 435.492 276.201 408.902 280.054 390.933C283.907 372.964 302.454 372.902 302.454 372.902C304.931 379.342 317.968 380.502 329.035 375.428C340.102 370.354 350.335 378.687 352.812 375.428C355.289 372.169 350.501 366.302 350.501 366.302C350.501 366.302 367.006 365.143 376.755 370.265C386.504 375.387 389.963 397.341 370.644 435.978Z" fill="url(#paint23_linear_303_1250)"/>
<path d="M306.743 445.638C300.056 441.427 296.093 437.712 305.257 433.75C314.421 429.788 319.045 424.831 318.302 420.789C317.559 416.747 315.088 422.089 307.652 415.67C302.203 410.964 299.561 426.07 287.673 404.029C278.49 387.002 302.451 372.904 302.451 372.904H302.443C302.213 372.904 283.884 373.076 280.054 390.935C276.2 408.906 287.425 435.487 307.239 452.993C307.972 453.64 308.711 454.267 309.456 454.875C309.272 451.038 310.126 447.77 306.743 445.638Z" fill="#C7283A"/>
<path d="M308.061 427.636C314.59 427.309 319.048 420.622 317.641 419.304C316.234 417.986 313.758 421.444 306.912 419.958C306.912 419.958 308.557 417.481 307.734 416.738C306.911 415.995 307.234 417.531 304.385 418.264C302.864 418.312 301.343 418.17 299.857 417.841V427.683C303.615 427.718 306.608 427.711 308.061 427.636Z" fill="url(#paint24_linear_303_1250)"/>
<path d="M187.998 562.976H201.818L197.271 574.508H185.878L187.998 562.976Z" fill="url(#paint25_linear_303_1250)"/>
<path d="M264.391 562.976V574.508H252.998L250.987 562.976H264.391Z" fill="url(#paint26_linear_303_1250)"/>
<path d="M299.859 417.838V427.683L299.294 427.673L265.594 426.973L264.894 426.953L264.394 426.943L251.14 426.075C249.334 425.958 247.579 425.42 246.017 424.506C244.454 423.591 243.127 422.325 242.14 420.807L224.721 394.021C222.557 390.689 221.332 386.836 221.174 382.866L221.333 382.024C221.699 380.041 222.563 378.184 223.844 376.626C225.124 375.068 226.78 373.861 228.654 373.118L232.726 371.503H232.964C235.149 371.504 237.285 372.154 239.1 373.371C240.915 374.588 242.328 376.318 243.158 378.339L254.164 408.122L264.023 410.222L299.859 417.838Z" fill="url(#paint27_linear_303_1250)"/>
<path d="M246.514 449.503L235.908 476.428L239.033 494.365L246.514 449.503Z" fill="#1D164D"/>
<path d="M187.173 567.459C186.299 567.459 185.453 567.765 184.782 568.324C184.11 568.883 183.656 569.66 183.498 570.519L181.744 580.043C181.644 580.587 181.665 581.147 181.805 581.683C181.945 582.218 182.202 582.716 182.556 583.142C182.91 583.567 183.353 583.909 183.855 584.144C184.356 584.379 184.903 584.501 185.456 584.501H222.781C223.175 584.501 223.553 584.344 223.832 584.065C224.11 583.787 224.267 583.409 224.267 583.015C224.267 582.449 224.104 581.894 223.798 581.418C223.491 580.942 223.054 580.564 222.539 580.329L199.169 569.69C199.169 569.69 189.873 574.606 187.173 567.459Z" fill="url(#paint28_linear_303_1250)"/>
<path d="M202.943 574.514C204.52 573.943 206.206 573.74 207.873 573.92C208.443 574.05 208.611 574.205 208.628 574.254C208.689 574.433 208.194 575.045 207.928 575.373C207.376 576.054 206.751 576.825 206.888 577.639C206.937 577.874 207.036 578.095 207.18 578.287C207.324 578.479 207.508 578.637 207.72 578.75C208.138 579.028 208.628 579.18 209.13 579.187C210.18 579.054 211.165 578.603 211.95 577.893C212.654 577.32 213.455 576.878 214.315 576.586L213.058 576.013C212.468 576.326 211.905 576.685 211.372 577.088C210.051 578.036 209.257 578.54 208.245 577.91C208.155 577.867 208.075 577.807 208.01 577.732C207.945 577.657 207.895 577.57 207.865 577.475C207.803 577.101 208.299 576.488 208.697 575.997C209.125 575.562 209.438 575.028 209.607 574.442L206.107 572.849C204.945 572.981 203.798 573.219 202.679 573.56C202.046 573.77 201.391 573.907 200.726 573.967C200.746 573.848 200.779 573.731 200.826 573.62C201.267 572.502 202.56 572.005 203.775 571.787L202.357 571.142C201.819 571.295 201.321 571.563 200.898 571.928C200.474 572.293 200.135 572.746 199.904 573.255C199.813 573.484 199.538 574.179 199.953 574.64C200.455 575.196 201.448 574.928 202.943 574.514Z" fill="white"/>
<path opacity="0.3" d="M370.639 435.978C357.849 461.548 342.899 468.384 328.504 465.016C331.856 463.962 334.939 462.193 337.54 459.83C340.141 457.468 342.198 454.569 343.568 451.333C352.484 431.846 329.698 423.455 347.531 413.448C365.364 403.441 365.431 401.916 360.361 394.803C355.291 387.69 365.691 391.643 371.635 384.837C371.74 384.726 371.836 384.606 371.922 384.48C373.874 382.053 372.422 381.419 369.822 381.23C365.74 380.953 358.822 381.805 357.933 378.585C356.447 373.235 350.245 381.706 341.458 374.176C347.036 375.157 351.325 377.386 352.812 375.424C355.289 372.165 350.504 366.3 350.504 366.3C350.504 366.3 367.009 365.141 376.758 370.263C386.507 375.385 389.962 397.341 370.639 435.978Z" fill="url(#paint29_linear_303_1250)"/>
<path d="M251.77 567.459C250.896 567.459 250.05 567.765 249.379 568.324C248.707 568.883 248.253 569.66 248.095 570.519L246.341 580.044C246.241 580.588 246.262 581.148 246.402 581.684C246.542 582.219 246.799 582.717 247.153 583.143C247.507 583.568 247.95 583.91 248.452 584.145C248.953 584.38 249.5 584.502 250.053 584.502H287.378C287.772 584.502 288.15 584.345 288.429 584.066C288.707 583.788 288.864 583.41 288.864 583.016C288.864 582.45 288.701 581.895 288.394 581.419C288.088 580.943 287.651 580.565 287.135 580.33L264.391 569.807C264.391 569.807 254.47 574.606 251.77 567.459Z" fill="url(#paint30_linear_303_1250)"/>
<path d="M264.559 574.496C265.075 575.07 266.096 574.796 267.641 574.366C269.21 573.934 271.163 573.397 272.728 573.753C273.316 573.887 273.49 574.047 273.507 574.098C273.571 574.282 273.06 574.913 272.787 575.252C272.217 575.952 271.572 576.752 271.714 577.59C271.764 577.832 271.867 578.06 272.016 578.258C272.164 578.456 272.354 578.619 272.572 578.735C273.003 579.022 273.508 579.178 274.026 579.186C275.11 579.049 276.125 578.584 276.936 577.852C277.592 577.338 278.317 576.919 279.089 576.607L277.862 576.039C277.334 576.335 276.826 576.662 276.339 577.021C274.976 578 274.156 578.521 273.112 577.87C273.019 577.826 272.937 577.764 272.87 577.686C272.802 577.609 272.752 577.519 272.721 577.421C272.657 577.036 273.169 576.403 273.58 575.896C273.964 575.481 274.265 574.996 274.466 574.467L270.611 572.684C269.514 572.833 268.43 573.067 267.369 573.384C266.716 573.602 266.04 573.743 265.355 573.805C265.373 573.682 265.407 573.561 265.455 573.446C265.737 572.933 266.141 572.496 266.631 572.175C267.121 571.854 267.682 571.658 268.265 571.604L266.873 570.96C266.352 571.125 265.871 571.398 265.463 571.762C265.055 572.125 264.728 572.571 264.504 573.07C264.415 573.303 264.131 574.02 264.559 574.496Z" fill="white"/>
<path d="M331.016 363.78C331.016 363.78 330.149 359.941 332.75 354.492C335.351 349.043 334.731 348.052 332.502 348.052C330.273 348.052 324.494 354.286 325.897 364.976C325.897 364.976 310.541 363.16 302.451 372.902C304.928 379.342 317.971 380.502 329.035 375.425C340.099 370.348 350.335 378.681 352.812 375.425C355.289 372.169 350.5 366.303 350.5 366.303C350.5 366.303 345.01 361.18 331.016 363.78Z" fill="url(#paint31_linear_303_1250)"/>
<path d="M292.687 405.389C292.705 405.635 292.671 405.883 292.589 406.116C292.506 406.349 292.377 406.562 292.209 406.743C292.04 406.924 291.836 407.068 291.61 407.167C291.383 407.265 291.139 407.316 290.892 407.316C290.644 407.316 290.4 407.265 290.173 407.167C289.947 407.068 289.743 406.924 289.575 406.743C289.406 406.562 289.277 406.349 289.194 406.116C289.112 405.883 289.079 405.635 289.096 405.389C289.096 404.397 290.896 399.352 290.896 399.352C290.896 399.352 292.687 404.398 292.687 405.389Z" fill="#FBDA91"/>
<path d="M311.821 406.875C311.839 407.121 311.805 407.369 311.723 407.602C311.64 407.835 311.511 408.048 311.343 408.229C311.174 408.41 310.97 408.554 310.744 408.653C310.517 408.751 310.273 408.802 310.026 408.802C309.778 408.802 309.534 408.751 309.307 408.653C309.081 408.554 308.877 408.41 308.709 408.229C308.54 408.048 308.411 407.835 308.328 407.602C308.246 407.369 308.213 407.121 308.23 406.875C308.23 405.883 310.03 400.838 310.03 400.838C310.03 400.838 311.821 405.884 311.821 406.875Z" fill="#FBDA91"/>
<path d="M326.123 425.908C326.091 426.362 325.888 426.787 325.555 427.098C325.221 427.408 324.783 427.581 324.328 427.581C323.872 427.581 323.434 427.408 323.101 427.098C322.767 426.787 322.564 426.362 322.532 425.908C322.532 424.916 324.332 419.871 324.332 419.871C324.332 419.871 326.123 424.917 326.123 425.908Z" fill="#FBDA91"/>
<path d="M372.881 409.389C372.946 409.639 372.958 409.901 372.914 410.156C372.87 410.411 372.773 410.653 372.627 410.867C372.482 411.082 372.293 411.262 372.073 411.398C371.852 411.533 371.606 411.62 371.349 411.652C371.092 411.684 370.832 411.662 370.585 411.585C370.337 411.509 370.11 411.38 369.916 411.209C369.722 411.037 369.568 410.826 369.462 410.59C369.357 410.354 369.303 410.098 369.304 409.839C369.162 408.715 370.231 402.769 370.231 402.769C370.231 402.769 372.741 408.266 372.881 409.389Z" fill="#F9E2B2"/>
<path d="M349.297 419.922C349.265 420.376 349.062 420.801 348.729 421.112C348.395 421.422 347.957 421.595 347.502 421.595C347.046 421.595 346.608 421.422 346.275 421.112C345.941 420.801 345.738 420.376 345.706 419.922C345.706 418.93 347.506 413.885 347.506 413.885C347.506 413.885 349.297 418.931 349.297 419.922Z" fill="#F9E2B2"/>
<path d="M355.321 399.043C355.289 399.497 355.086 399.922 354.753 400.233C354.419 400.543 353.981 400.716 353.526 400.716C353.07 400.716 352.632 400.543 352.299 400.233C351.965 399.922 351.762 399.497 351.73 399.043C351.73 398.051 353.53 393.006 353.53 393.006C353.53 393.006 355.321 398.052 355.321 399.043Z" fill="#FBDA91"/>
<path d="M371.922 384.481C371.407 383.807 370.522 382.41 369.822 381.231C372.418 381.419 373.874 382.053 371.922 384.481Z" fill="#FBDA91"/>
<path d="M374.507 385.164C374.147 385.411 373.706 385.511 373.275 385.443C372.844 385.374 372.455 385.143 372.189 384.797C372.094 384.696 372.005 384.59 371.921 384.48C373.873 382.053 372.421 381.419 369.821 381.23C369.221 380.259 368.741 379.437 368.672 379.318C370.562 380.388 372.391 381.562 374.151 382.835C374.5 383.102 374.732 383.494 374.798 383.928C374.864 384.362 374.76 384.805 374.507 385.164Z" fill="#F9E2B2"/>
<path d="M316.959 442.014C316.927 442.468 316.724 442.893 316.391 443.204C316.057 443.514 315.619 443.687 315.164 443.687C314.708 443.687 314.27 443.514 313.937 443.204C313.603 442.893 313.4 442.468 313.368 442.014C313.368 441.022 315.168 435.977 315.168 435.977C315.168 435.977 316.959 441.023 316.959 442.014Z" fill="#FBDA91"/>
<path d="M341.455 374.172C341.424 374.105 340.145 371.418 330.855 371.503C321.443 371.589 315.499 374.884 312.692 372.903C311.124 371.794 312.936 368.473 314.84 365.756C310.04 366.72 305.69 369.231 302.455 372.906C304.932 379.346 317.975 380.506 329.039 375.429C332.945 373.723 337.287 373.283 341.455 374.172Z" fill="#6BBC61"/>
<path d="M475.507 573.934H460.082L433.682 521.229C431.977 517.818 430.6 514.251 429.571 510.579L422.636 485.901L418.108 503.367L414.208 573.935H399.257L394.492 499.583C394.403 498.134 394.462 496.68 394.67 495.244L400.079 459.014V445.393L407.499 445.066L449.931 445.393L451.09 493.938L452.903 508.303L475.507 573.934Z" fill="url(#paint32_linear_303_1250)"/>
<path d="M418.109 503.366L422.637 485.895L418.423 462.735L418.109 503.366Z" fill="#1D164D"/>
<path d="M394.953 392.51C394.953 392.51 399.535 389.166 399.411 373.934C399.287 358.702 397.182 346.07 404.364 341.241C411.546 336.412 419.472 340.003 420.401 344.832C420.401 344.832 423.435 342.355 425.416 344.956C427.397 347.557 427.15 365.967 439.038 376.039C450.926 386.111 450.761 397.839 444.487 403.449C438.213 409.059 394.953 392.51 394.953 392.51Z" fill="url(#paint33_linear_303_1250)"/>
<path d="M467.769 486.999C451.918 501.86 425.416 495.915 425.416 495.915C418.977 476.349 416.416 445.389 416.416 445.389L407.5 445.059C407.863 462.699 410.133 480.249 414.269 497.401C398.913 497.074 391.483 487.494 391.483 487.494C399.409 466.194 400.776 436.354 400.776 436.354L368.063 437.354L364.358 437.463C360.508 437.886 356.612 437.491 352.925 436.304C346.325 434.323 344.009 429.29 346.325 429.704C348.641 430.118 356.688 429.228 356.688 429.228C355.44 427.861 355.509 424.958 356.064 424.958C356.619 424.958 356.995 426.622 359.224 427.058C360.761 427.383 362.271 427.824 363.742 428.376L374.778 425.79L400.398 419.796L399.407 411.702L377.592 419.895C380.483 413.7 382.939 407.311 384.943 400.774L397.538 387.728C399.353 385.857 401.5 384.338 403.869 383.25L408.822 380.991L420.403 377.335L431.014 379.683C432.36 379.985 433.659 380.465 434.878 381.11C437.156 382.317 439.091 384.081 440.503 386.238C441.915 388.394 442.757 390.874 442.952 393.444C443.041 394.633 443.152 395.901 443.259 397.228V397.238C444.19 408.562 445.726 424.215 447.959 436.797C451.917 459.259 467.769 486.999 467.769 486.999Z" fill="url(#paint34_linear_303_1250)"/>
<path d="M445.895 423.009C445.836 422.603 445.162 419.284 440.773 417.798C436.097 416.198 430.618 422.598 428.141 433.005C425.664 443.412 416.421 445.389 407.505 445.062C402.086 444.854 400.332 446.756 399.787 448.272C400.56 441.159 400.778 436.354 400.778 436.354H413.008C414.859 436.354 416.679 435.881 418.295 434.979C419.912 434.078 421.27 432.777 422.242 431.202L443.264 397.241C443.571 400.956 443.938 405.141 444.384 409.526C444.83 413.911 445.321 418.482 445.895 423.009Z" fill="#C9E2F4"/>
<path d="M427.141 382.896C423.44 384.7 420.483 387.737 418.779 391.485L412.607 405.117L406.613 418.343L405.999 418.492L400.399 419.8C407.007 417.492 403.044 409.4 406.099 408.228C408.199 407.435 410.478 404.453 412.599 399.985C413.649 397.971 414.56 395.887 415.326 393.748C417.95 385.853 426.418 383.064 427.141 382.896Z" fill="#C9E2F4"/>
<path d="M412.709 397.588C413.702 383.138 420.402 377.341 420.402 377.341L408.823 380.994C408.823 380.994 403.417 405.243 407.502 445.06L416.418 445.39C416.418 445.39 411.715 412.038 412.709 397.588Z" fill="url(#paint35_linear_303_1250)"/>
<path d="M412.607 405.116L406.613 418.342L405.999 418.491C405.949 414.825 405.999 411.408 406.099 408.227C408.199 407.434 410.478 404.452 412.599 399.984C412.557 401.561 412.557 403.285 412.607 405.116Z" fill="#B122E5"/>
<path d="M416.5 353.749C416.5 353.749 407.749 357.464 402.053 353.749C402.053 353.749 401.253 372.216 403.869 374.636C404.539 375.215 405.356 375.598 406.23 375.744C407.103 375.889 408 375.792 408.822 375.462V380.993L411.67 384.893L420.401 377.339V365.205C420.401 365.205 424.962 362.129 422.981 359.322C421 356.515 418.687 361.551 418.687 363.037C418.391 362.14 417.897 361.322 417.242 360.642C416.005 359.198 416.5 353.749 416.5 353.749Z" fill="url(#paint36_linear_303_1250)"/>
<path d="M415.323 371.149C413.546 373.102 411.313 374.584 408.823 375.463V378.706C413.679 377.268 415.323 371.149 415.323 371.149Z" fill="#1D164D"/>
<path d="M443.259 397.232V397.242L422.241 431.208C421.267 432.782 419.908 434.081 418.291 434.981C416.674 435.882 414.855 436.355 413.004 436.355H400.778L368.065 437.355L364.36 437.464C360.51 437.887 356.614 437.492 352.927 436.305C346.327 434.324 344.011 429.291 346.327 429.705C348.643 430.119 356.69 429.229 356.69 429.229C355.442 427.862 355.511 424.959 356.066 424.959C356.621 424.959 356.997 426.623 359.226 427.059C360.763 427.384 362.273 427.825 363.744 428.377L374.78 425.791L400.4 419.797L406.612 418.341L418.781 391.488C420.183 388.394 422.448 385.769 425.303 383.928C428.158 382.088 431.484 381.109 434.881 381.11C437.159 382.317 439.094 384.081 440.506 386.238C441.917 388.394 442.76 390.874 442.955 393.444C443.042 394.636 443.15 395.904 443.259 397.232Z" fill="url(#paint37_linear_303_1250)"/>
<path d="M359.228 427.061C356.999 426.625 356.622 424.961 356.068 424.961C355.514 424.961 355.444 427.861 356.692 429.231C356.692 429.231 348.638 430.113 346.329 429.707C344.02 429.301 346.329 434.324 352.929 436.307C356.616 437.494 360.512 437.889 364.362 437.466L363.748 428.381C362.277 427.828 360.766 427.387 359.228 427.061Z" fill="url(#paint38_linear_303_1250)"/>
<path d="M399.416 411.706L398.26 393.048C398.26 393.048 394.591 402.46 394.36 406.918C394.129 411.376 390.333 408.218 386.701 411.365C383.301 414.312 385.688 407.414 383.159 406.249C381.659 410.513 379.827 415.056 377.599 419.899L399.416 411.706Z" fill="#C9E2F4"/>
<path d="M399.262 573.933H414.202L413.489 586.812H400.089L399.262 573.933Z" fill="url(#paint39_linear_303_1250)"/>
<path d="M479.936 586.812H466.536L460.086 573.933H475.512L479.936 586.812Z" fill="url(#paint40_linear_303_1250)"/>
<path d="M414.065 576.406C414.939 576.406 415.785 576.712 416.456 577.271C417.127 577.83 417.582 578.607 417.74 579.466L419.493 588.99C419.593 589.534 419.573 590.094 419.432 590.63C419.292 591.165 419.036 591.663 418.682 592.089C418.327 592.514 417.884 592.857 417.383 593.091C416.881 593.326 416.335 593.448 415.781 593.448H378.457C378.063 593.448 377.685 593.291 377.406 593.013C377.128 592.734 376.971 592.356 376.971 591.962C376.971 591.396 377.134 590.841 377.44 590.365C377.747 589.889 378.184 589.511 378.699 589.276L399.546 578.638C399.546 578.638 411.365 583.554 414.065 576.406Z" fill="url(#paint41_linear_303_1250)"/>
<path d="M387.902 586.501C388.742 587.259 389.794 587.742 390.916 587.884C391.452 587.876 391.975 587.714 392.422 587.417C392.648 587.296 392.845 587.127 392.999 586.922C393.152 586.717 393.259 586.481 393.312 586.23C393.458 585.36 392.79 584.53 392.2 583.809C391.917 583.49 391.677 583.136 391.485 582.755L390.534 583.24C390.762 583.686 391.045 584.101 391.378 584.475C391.804 585 392.334 585.656 392.268 586.054C392.236 586.155 392.184 586.249 392.114 586.329C392.044 586.409 391.959 586.474 391.863 586.519C390.782 587.193 389.932 586.654 388.521 585.64C388.153 585.376 387.761 585.112 387.354 584.862L386.225 585.439C386.812 585.747 387.373 586.102 387.902 586.501Z" fill="white"/>
<path d="M397.81 581.868C396.757 581.558 395.683 581.324 394.596 581.168L392.549 582.212C394.237 582.104 395.93 582.335 397.528 582.892C399.128 583.334 400.186 583.621 400.721 583.027C401.164 582.535 400.87 581.792 400.773 581.548C400.533 581.015 400.18 580.54 399.74 580.155C399.3 579.771 398.782 579.485 398.221 579.319L396.844 580.019C397.454 580.073 398.042 580.275 398.555 580.609C399.069 580.943 399.492 581.398 399.789 581.934C399.84 582.053 399.876 582.177 399.896 582.305C399.186 582.241 398.486 582.094 397.81 581.868Z" fill="white"/>
<path d="M476.356 576.406C477.23 576.406 478.076 576.712 478.747 577.271C479.419 577.83 479.873 578.607 480.031 579.466L481.785 588.99C481.885 589.534 481.864 590.094 481.724 590.63C481.584 591.165 481.327 591.663 480.973 592.089C480.619 592.514 480.176 592.856 479.674 593.091C479.173 593.326 478.627 593.448 478.073 593.448H440.748C440.354 593.448 439.976 593.291 439.698 593.012C439.419 592.734 439.262 592.356 439.262 591.962C439.262 591.396 439.425 590.841 439.731 590.365C440.038 589.888 440.475 589.51 440.991 589.276L462.391 578.638C462.391 578.638 473.656 583.554 476.356 576.406Z" fill="url(#paint42_linear_303_1250)"/>
<path d="M476.356 576.406C477.23 576.406 478.076 576.712 478.747 577.271C479.419 577.83 479.873 578.607 480.031 579.466L481.785 588.99C481.885 589.534 481.864 590.094 481.724 590.63C481.584 591.165 481.327 591.663 480.973 592.089C480.619 592.514 480.176 592.856 479.674 593.091C479.173 593.326 478.627 593.448 478.073 593.448H440.748C440.354 593.448 439.976 593.291 439.698 593.012C439.419 592.734 439.262 592.356 439.262 591.962C439.262 591.396 439.425 590.841 439.731 590.365C440.038 589.888 440.475 589.51 440.991 589.276L462.391 578.638C462.391 578.638 473.656 583.554 476.356 576.406Z" fill="url(#paint43_linear_303_1250)"/>
<path d="M450.414 586.674C451.231 587.411 452.254 587.88 453.345 588.018C453.867 588.01 454.375 587.853 454.81 587.564C455.03 587.447 455.221 587.283 455.371 587.083C455.52 586.884 455.624 586.654 455.675 586.41C455.818 585.564 455.168 584.761 454.594 584.054C454.318 583.713 453.803 583.077 453.868 582.891C453.875 582.88 453.883 582.87 453.893 582.861L452.925 583.342C453.136 583.841 453.431 584.301 453.795 584.702C454.209 585.213 454.725 585.85 454.66 586.239C454.629 586.337 454.578 586.429 454.51 586.506C454.443 586.584 454.359 586.647 454.266 586.691C453.215 587.347 452.389 586.822 451.016 585.836C450.597 585.536 450.147 585.236 449.674 584.959L448.539 585.524C449.203 585.84 449.831 586.226 450.414 586.674Z" fill="white"/>
<path d="M459.779 583.162C461.336 583.592 462.365 583.871 462.885 583.293C463.315 582.814 463.03 582.093 462.935 581.854C462.689 581.324 462.333 580.852 461.891 580.471C461.448 580.09 460.929 579.807 460.368 579.643L458.968 580.343C460.215 580.575 461.526 581.092 461.978 582.235C462.027 582.351 462.063 582.473 462.083 582.597C461.392 582.534 460.711 582.392 460.053 582.173C458.962 581.847 457.846 581.609 456.716 581.463L455.257 582.188L454.372 582.628C454.456 582.601 454.54 582.575 454.653 582.549C456.231 582.187 458.195 582.73 459.779 583.162Z" fill="white"/>
<path opacity="0.5" d="M459.295 318.621C458.868 323.667 459.517 329.674 462.659 334.38C462.812 334.608 462.967 334.829 463.132 335.04C463.151 335.071 463.172 335.101 463.195 335.129C463.33 335.302 463.465 335.476 463.601 335.642C463.647 335.698 463.694 335.747 463.74 335.803C463.859 335.937 463.972 336.069 464.086 336.194C464.155 336.263 464.218 336.332 464.286 336.394L464.57 336.694C464.658 336.769 464.738 336.85 464.826 336.925C464.914 337 464.99 337.073 465.065 337.145C465.165 337.224 465.265 337.31 465.365 337.39C465.431 337.446 465.499 337.501 465.565 337.55C465.676 337.64 465.79 337.723 465.899 337.799C465.961 337.846 466.019 337.884 466.083 337.925C466.196 338.008 466.318 338.087 466.436 338.158C466.447 338.169 466.46 338.173 466.464 338.181C467.097 338.197 467.729 338.149 468.352 338.036C469.6 337.809 470.779 337.296 471.796 336.537C472.813 335.778 473.64 334.795 474.214 333.663C477.148 327.953 478.705 318.263 473.168 310.524C472.021 308.883 470.593 307.458 468.949 306.315C468.034 305.685 467.02 305.215 465.949 304.923L465.899 304.95C465.631 305.118 465.368 305.295 465.114 305.489C465.1 305.494 465.088 305.503 465.078 305.513C463.726 306.571 462.593 307.883 461.745 309.375C461.745 309.381 461.734 309.386 461.73 309.399C461.567 309.682 461.416 309.97 461.28 310.255C461.27 310.265 461.264 310.278 461.262 310.292C461.123 310.583 460.993 310.871 460.884 311.157C460.016 313.561 459.481 316.072 459.295 318.621Z" fill="url(#paint44_linear_303_1250)"/>
<path d="M474.962 348.446L473.455 338.679L470.707 339.04L472.214 348.807L474.962 348.446Z" fill="#B7C0E2"/>
<path d="M546.594 316.021C549.696 305.901 542.833 294.823 531.264 291.277C519.696 287.731 507.804 293.059 504.702 303.179C501.6 313.298 508.463 324.376 520.031 327.922C531.599 331.468 543.492 326.14 546.594 316.021Z" fill="url(#paint45_linear_303_1250)"/>
<path d="M533.786 333.211L531.554 322.15C531.554 322.15 535.086 321.783 534.927 317.387C534.768 312.991 528.574 313.526 527.8 317.753C526.913 317.214 526.181 316.455 525.676 315.548C525.172 314.641 524.911 313.619 524.921 312.581C525.101 309.158 524.543 308.523 523.654 308.773C522.765 309.023 519.003 314.303 515.432 313.846C511.861 313.389 511.205 312.318 510.794 313.468C510.383 314.618 512.568 326.592 514.443 330.124C514.901 331.106 515.611 331.95 516.5 332.569C517.39 333.188 518.428 333.56 519.508 333.648L520.379 338.987L528.927 343.868C528.927 343.868 537.407 338.089 533.786 333.211Z" fill="url(#paint46_linear_303_1250)"/>
<path d="M518.257 495.816L517.557 498.095L500.221 501.129L522.849 508.066L525.887 498.156L518.257 495.816Z" fill="#1D164D"/>
<path d="M497.273 489.386L496.573 491.665L479.237 494.699L501.865 501.636L504.903 491.726L497.273 489.386Z" fill="#1D164D"/>
<path d="M514.968 401.59C514.968 401.59 495.157 430.475 490.868 439.941C486.579 449.407 497.277 489.386 497.277 489.386L504.907 491.725C504.907 491.725 505.913 463.858 507.17 457.113C508.427 450.368 527.02 429.806 527.02 429.806L538.359 411.541L535.308 404.107L514.968 401.59Z" fill="url(#paint47_linear_303_1250)"/>
<path d="M559.742 402.097C559.742 402.097 561.406 411.419 555.91 424.807C550.414 438.195 531.257 449.251 529.11 454.738C526.963 460.225 525.886 498.158 525.886 498.158L518.255 495.818C518.255 495.818 510.318 459.336 508.391 447.846C506.464 436.356 531.315 416.341 537.825 398.51L559.742 402.097Z" fill="url(#paint48_linear_303_1250)"/>
<path d="M560.463 398.608C561.104 399.424 561.487 400.413 561.562 401.448C561.637 402.484 561.401 403.518 560.885 404.418C559.144 407.827 525.852 408.635 518.417 407.168C512.47 405.994 511.283 404.053 511.631 402.968C512.014 401.536 512.162 400.052 512.068 398.573L511.584 368.373C511.584 368.373 501.994 382.073 495.975 385.444C489.956 388.815 472.234 362.281 472.234 362.281L476.758 354.711C476.758 354.711 489.699 368.098 492.209 368.984C494.719 369.87 500.394 355.145 502.759 348.566C505.124 341.987 506.026 340.176 508.137 338.966C510.248 337.756 519.895 336.009 519.895 336.009C520.481 337.298 521.438 338.383 522.644 339.126C523.849 339.87 525.249 340.237 526.664 340.182C531.693 340.042 533.788 333.206 533.788 333.206C533.788 333.206 551.161 338.561 556.893 340.289C562.625 342.017 580.231 367.789 583.784 375.489C587.337 383.189 591.184 404.309 591.184 404.309L584.479 406.891C584.479 406.891 573.813 384.954 569.251 379.033C564.689 373.112 553.801 366.644 553.801 366.644L560.463 398.608Z" fill="url(#paint49_linear_303_1250)"/>
<path d="M478.325 364.964L475.953 349.584L471.626 350.152L473.998 365.532L478.325 364.964Z" fill="#414E6E"/>
<path d="M473.519 367.923L478.834 367.223C479.002 367.201 479.164 367.143 479.309 367.055C479.454 366.966 479.578 366.848 479.675 366.708C479.771 366.568 479.837 366.41 479.868 366.243C479.899 366.076 479.895 365.904 479.856 365.739C479.787 365.447 479.612 365.19 479.364 365.02C479.117 364.849 478.815 364.776 478.517 364.816L473.203 365.516C473.035 365.538 472.873 365.595 472.728 365.684C472.583 365.773 472.458 365.891 472.362 366.031C472.265 366.17 472.199 366.329 472.168 366.496C472.137 366.663 472.141 366.835 472.18 367C472.249 367.292 472.425 367.548 472.672 367.719C472.919 367.889 473.221 367.962 473.519 367.923Z" fill="#2C3449"/>
<path d="M471.233 350.457L476.547 349.757C476.715 349.735 476.877 349.678 477.023 349.59C477.168 349.501 477.292 349.383 477.389 349.243C477.485 349.104 477.552 348.945 477.583 348.778C477.614 348.611 477.61 348.439 477.571 348.274C477.502 347.982 477.326 347.725 477.079 347.555C476.832 347.384 476.53 347.311 476.232 347.35L470.917 348.05C470.749 348.072 470.587 348.129 470.442 348.218C470.297 348.307 470.172 348.425 470.076 348.565C469.98 348.705 469.914 348.863 469.883 349.03C469.851 349.197 469.856 349.369 469.895 349.534C469.964 349.826 470.14 350.082 470.387 350.252C470.634 350.423 470.935 350.496 471.233 350.457Z" fill="#2C3449"/>
<path d="M465.089 305.511C463.736 306.567 462.604 307.879 461.757 309.371C462.603 307.878 463.735 306.566 465.089 305.511Z" fill="#B7C0E2"/>
<path d="M466.084 337.922C466.202 338.003 466.32 338.084 466.438 338.158C466.32 338.083 466.202 338.003 466.084 337.922Z" fill="#B7C0E2"/>
<path d="M465.572 337.549C465.683 337.634 465.793 337.718 465.905 337.799C465.793 337.718 465.683 337.634 465.572 337.549Z" fill="#B7C0E2"/>
<path d="M465.906 304.949C465.639 305.114 465.377 305.292 465.12 305.483C465.375 305.292 465.637 305.114 465.906 304.949Z" fill="#B7C0E2"/>
<path d="M465.072 337.141C465.172 337.225 465.272 337.308 465.372 337.389C465.268 337.305 465.17 337.225 465.072 337.141Z" fill="#B7C0E2"/>
<path d="M463.128 335.042C463.15 335.072 463.173 335.099 463.194 335.128C463.176 335.099 463.15 335.072 463.128 335.042Z" fill="#B7C0E2"/>
<path d="M464.087 336.192C464.152 336.262 464.219 336.33 464.287 336.398C464.219 336.33 464.152 336.262 464.087 336.192Z" fill="#B7C0E2"/>
<path d="M464.576 336.689C464.659 336.769 464.743 336.847 464.827 336.924C464.743 336.847 464.662 336.769 464.576 336.689Z" fill="#B7C0E2"/>
<path d="M463.603 335.644C463.649 335.699 463.695 335.75 463.742 335.804C463.695 335.75 463.649 335.698 463.603 335.644Z" fill="#B7C0E2"/>
<path d="M461.742 309.392C461.579 309.677 461.427 309.964 461.288 310.253C461.425 309.964 461.576 309.677 461.742 309.392Z" fill="#B7C0E2"/>
<path d="M459.297 318.623C459.486 316.072 460.024 313.559 460.897 311.155C461.008 310.868 461.137 310.578 461.274 310.289C461.136 310.577 461.01 310.867 460.899 311.153C460.025 313.558 459.486 316.071 459.297 318.623Z" fill="#B7C0E2"/>
<path d="M464.827 336.924C464.908 336.997 464.989 337.07 465.072 337.141C464.989 337.07 464.908 336.997 464.827 336.924Z" fill="#B7C0E2"/>
<path d="M464.285 336.398C464.385 336.498 464.478 336.598 464.576 336.689C464.478 336.595 464.382 336.497 464.285 336.398Z" fill="#B7C0E2"/>
<path d="M463.742 335.804C463.856 335.937 463.971 336.068 464.086 336.192C463.97 336.068 463.856 335.937 463.742 335.804Z" fill="#B7C0E2"/>
<path d="M462.657 334.379C462.81 334.609 462.967 334.83 463.128 335.043C462.969 334.83 462.812 334.61 462.659 334.381C459.514 329.681 458.868 323.666 459.297 318.624C458.868 323.664 459.513 329.679 462.657 334.379Z" fill="#B7C0E2"/>
<path d="M463.194 335.124C463.329 335.301 463.465 335.474 463.603 335.64C463.464 335.478 463.329 335.305 463.194 335.124Z" fill="#B7C0E2"/>
<path d="M465.12 305.483L465.085 305.511L465.12 305.483Z" fill="#B7C0E2"/>
<path d="M465.368 337.389C465.435 337.444 465.504 337.497 465.568 337.55C465.504 337.497 465.435 337.444 465.368 337.389Z" fill="#B7C0E2"/>
<path d="M465.95 304.919L465.9 304.948C465.921 304.941 465.936 304.929 465.95 304.919Z" fill="#B7C0E2"/>
<path d="M461.754 309.371L461.742 309.392L461.754 309.371Z" fill="#B7C0E2"/>
<path d="M466.469 338.178L466.439 338.158L466.472 338.178H466.469Z" fill="#B7C0E2"/>
<path d="M461.288 310.257L461.27 310.294L461.288 310.257Z" fill="#B7C0E2"/>
<path d="M465.905 337.799C465.964 337.842 466.025 337.881 466.084 337.922C466.025 337.881 465.964 337.842 465.905 337.799Z" fill="#B7C0E2"/>
<path d="M473.487 338.89L474.821 347.54L470.795 339.614L472.326 338.83L473.119 338.73L473.487 338.89Z" fill="#8F9BC1"/>
<path d="M465.957 304.918C467.028 305.21 468.042 305.681 468.957 306.31C470.601 307.452 472.029 308.877 473.176 310.518C478.713 318.26 477.156 327.946 474.222 333.657C473.648 334.789 472.821 335.772 471.804 336.531C470.787 337.289 469.608 337.803 468.36 338.03C467.737 338.143 467.105 338.191 466.472 338.175C467.516 338.872 468.698 339.335 469.937 339.532C471.177 339.73 472.444 339.658 473.653 339.32C474.862 338.982 475.983 338.387 476.941 337.576C477.898 336.765 478.669 335.756 479.201 334.619C482.28 328.432 484.066 318.019 478.658 309.84C476.776 306.995 473.68 303.931 470.058 303.788C469.149 303.751 468.242 303.899 467.392 304.223C466.893 304.409 466.413 304.642 465.957 304.918Z" fill="#EAF5FF"/>
<path d="M459.295 318.621C458.868 323.667 459.517 329.674 462.659 334.38C462.812 334.608 462.967 334.829 463.132 335.04C463.151 335.071 463.172 335.101 463.195 335.129C463.33 335.302 463.465 335.476 463.601 335.642C463.647 335.698 463.694 335.747 463.74 335.803C463.859 335.937 463.972 336.069 464.086 336.194C464.155 336.263 464.218 336.332 464.286 336.394L464.57 336.694C464.658 336.769 464.738 336.85 464.826 336.925C464.914 337 464.99 337.073 465.065 337.145C465.165 337.224 465.265 337.31 465.365 337.39C465.431 337.446 465.499 337.501 465.565 337.55C465.676 337.64 465.79 337.723 465.899 337.799C465.961 337.846 466.019 337.884 466.083 337.925C466.196 338.008 466.318 338.087 466.436 338.158C466.447 338.169 466.46 338.173 466.464 338.181C467.097 338.197 467.729 338.149 468.352 338.036C467.515 337.267 466.774 336.4 466.145 335.453C461.137 327.963 462.47 317.153 464.382 312.227C465.305 309.859 466.89 307.806 468.949 306.315C468.034 305.685 467.02 305.215 465.949 304.923L465.899 304.95C465.631 305.118 465.368 305.295 465.114 305.489C465.1 305.494 465.088 305.503 465.078 305.513C463.726 306.571 462.593 307.883 461.745 309.375C461.745 309.381 461.734 309.386 461.73 309.399C461.567 309.682 461.416 309.97 461.28 310.255C461.27 310.265 461.264 310.278 461.262 310.292C461.123 310.583 460.993 310.871 460.884 311.157C460.016 313.561 459.481 316.072 459.295 318.621Z" fill="#C9E2F4"/>
<path d="M471.923 352.087C471.923 352.087 470.305 351.55 469.194 354.47C468.677 355.831 468.649 357.33 469.114 358.709C469.579 360.089 470.509 361.264 471.744 362.035C474.188 363.567 476.186 363.571 476.225 359.756C476.269 358.498 476.003 357.249 475.452 356.117C474.901 354.985 474.081 354.006 473.064 353.265C472.589 352.976 472.196 352.571 471.923 352.087Z" fill="#F9BF9D"/>
<path d="M591.179 404.315C591.179 404.315 598.673 419.772 596.846 422.515C595.019 425.258 588.636 415.824 587.817 415.283C586.998 414.742 586.058 417.237 584.822 415.409C583.586 413.581 586.356 409.27 584.474 406.896L591.179 404.315Z" fill="#F9BF9D"/>
<path d="M542.378 358.513L553.796 366.651L560.463 398.609C561.104 399.425 561.486 400.414 561.562 401.45C561.637 402.485 561.401 403.519 560.885 404.419C559.977 406.196 550.497 407.266 540.575 407.675C555.469 406.131 554.722 398.992 551.507 387.92C548.292 376.848 542.378 358.513 542.378 358.513Z" fill="#FF8A5F"/>
<path d="M486.238 380.03C486.493 380.23 492.973 385.16 497.19 379.212C501.49 373.144 511.35 349.001 511.35 349.001L511.584 368.377C511.584 368.377 501.994 382.077 495.975 385.448C493.796 386.669 490.086 383.966 486.238 380.03Z" fill="#FF8A5F"/>
<path d="M519.507 333.646L519.893 336.014C526.068 336.014 528.826 330.22 528.826 330.22C527.635 331.461 526.176 332.414 524.562 333.008C522.947 333.602 521.218 333.82 519.507 333.646Z" fill="#1D164D"/>
</g>
<defs>
<linearGradient id="paint0_linear_303_1250" x1="103.883" y1="403.999" x2="334.377" y2="503.333" gradientUnits="userSpaceOnUse">
<stop stop-color="#DBE42C"/>
<stop offset="1" stop-color="#6AD419"/>
</linearGradient>
<linearGradient id="paint1_linear_303_1250" x1="67.5521" y1="415.853" x2="229.876" y2="433.197" gradientUnits="userSpaceOnUse">
<stop stop-color="white"/>
<stop offset="1" stop-color="white" stop-opacity="0"/>
</linearGradient>
<linearGradient id="paint2_linear_303_1250" x1="188.336" y1="263.238" x2="240.991" y2="320.637" gradientUnits="userSpaceOnUse">
<stop stop-color="#DBE42C"/>
<stop offset="1" stop-color="#6AD419"/>
</linearGradient>
<linearGradient id="paint3_linear_303_1250" x1="-473.683" y1="333.056" x2="-496.412" y2="325.145" gradientUnits="userSpaceOnUse">
<stop stop-color="#8F5138"/>
<stop offset="1" stop-color="#BA6D4D"/>
</linearGradient>
<linearGradient id="paint4_linear_303_1250" x1="308.778" y1="61.1663" x2="320.462" y2="127.015" gradientUnits="userSpaceOnUse">
<stop stop-color="#6BBC61"/>
<stop offset="1" stop-color="#A7DF63"/>
</linearGradient>
<linearGradient id="paint5_linear_303_1250" x1="315.961" y1="271.193" x2="337.034" y2="103.247" gradientUnits="userSpaceOnUse">
<stop stop-color="#C7283A"/>
<stop offset="1" stop-color="#EF4B4B"/>
</linearGradient>
<linearGradient id="paint6_linear_303_1250" x1="349.28" y1="140.52" x2="508.617" y2="186.165" gradientUnits="userSpaceOnUse">
<stop stop-color="white"/>
<stop offset="1" stop-color="white" stop-opacity="0"/>
</linearGradient>
<linearGradient id="paint7_linear_303_1250" x1="353.014" y1="102.901" x2="339.967" y2="98.3602" gradientUnits="userSpaceOnUse">
<stop stop-color="#8F5138"/>
<stop offset="1" stop-color="#BA6D4D"/>
</linearGradient>
<linearGradient id="paint8_linear_303_1250" x1="341.457" y1="258.229" x2="341.457" y2="470.845" gradientUnits="userSpaceOnUse">
<stop stop-color="#FFB965"/>
<stop offset="1" stop-color="#FF8A5F"/>
</linearGradient>
<linearGradient id="paint9_linear_303_1250" x1="356.045" y1="315.729" x2="316.366" y2="443.906" gradientUnits="userSpaceOnUse">
<stop stop-color="white"/>
<stop offset="1" stop-color="#EAF5FF"/>
</linearGradient>
<linearGradient id="paint10_linear_303_1250" x1="341.457" y1="258.894" x2="341.457" y2="227.434" gradientUnits="userSpaceOnUse">
<stop stop-color="#1D164D"/>
<stop offset="1" stop-color="#4A4975"/>
</linearGradient>
<linearGradient id="paint11_linear_303_1250" x1="341.457" y1="210.921" x2="341.457" y2="247.259" gradientUnits="userSpaceOnUse">
<stop stop-color="#FFB965"/>
<stop offset="1" stop-color="#FF8A5F"/>
</linearGradient>
<linearGradient id="paint12_linear_303_1250" x1="558.913" y1="249.743" x2="767.512" y2="505.878" gradientUnits="userSpaceOnUse">
<stop stop-color="#ACD4F3"/>
<stop offset="1" stop-color="#4099F1"/>
</linearGradient>
<linearGradient id="paint13_linear_303_1250" x1="858.247" y1="409.527" x2="688.999" y2="409.527" gradientUnits="userSpaceOnUse">
<stop stop-color="#ACD4F3"/>
<stop offset="1" stop-color="#4099F1"/>
</linearGradient>
<linearGradient id="paint14_linear_303_1250" x1="634.17" y1="135.158" x2="630.095" y2="275.495" gradientUnits="userSpaceOnUse">
<stop stop-color="#ACD4F3"/>
<stop offset="1" stop-color="#4099F1"/>
</linearGradient>
<linearGradient id="paint15_linear_303_1250" x1="-24.6365" y1="630.08" x2="87.3928" y2="478.513" gradientUnits="userSpaceOnUse">
<stop stop-color="#C7283A"/>
<stop offset="1" stop-color="#EF4B4B"/>
</linearGradient>
<linearGradient id="paint16_linear_303_1250" x1="28.4641" y1="521.235" x2="238.32" y2="508.016" gradientUnits="userSpaceOnUse">
<stop stop-color="white"/>
<stop offset="1" stop-color="white" stop-opacity="0"/>
</linearGradient>
<linearGradient id="paint17_linear_303_1250" x1="54.5204" y1="491.147" x2="59.8875" y2="466.373" gradientUnits="userSpaceOnUse">
<stop stop-color="#6BBC61"/>
<stop offset="1" stop-color="#A7DF63"/>
</linearGradient>
<linearGradient id="paint18_linear_303_1250" x1="246.062" y1="393.442" x2="283.369" y2="393.442" gradientUnits="userSpaceOnUse">
<stop stop-color="#C9E2F4"/>
<stop offset="1" stop-color="#EAF5FF"/>
</linearGradient>
<linearGradient id="paint19_linear_303_1250" x1="302.032" y1="368.884" x2="262.99" y2="460.464" gradientUnits="userSpaceOnUse">
<stop stop-color="#ACD4F3"/>
<stop offset="1" stop-color="#4099F1"/>
</linearGradient>
<linearGradient id="paint20_linear_303_1250" x1="249.904" y1="358.251" x2="252.709" y2="333.305" gradientUnits="userSpaceOnUse">
<stop stop-color="#1D164D"/>
<stop offset="1" stop-color="#4A4975"/>
</linearGradient>
<linearGradient id="paint21_linear_303_1250" x1="258.059" y1="372.602" x2="249.755" y2="360.761" gradientUnits="userSpaceOnUse">
<stop stop-color="#FFC0AC"/>
<stop offset="1" stop-color="#FFD6C7"/>
</linearGradient>
<linearGradient id="paint22_linear_303_1250" x1="184.178" y1="562.343" x2="280.886" y2="521.366" gradientUnits="userSpaceOnUse">
<stop stop-color="#1D164D"/>
<stop offset="1" stop-color="#4A4975"/>
</linearGradient>
<linearGradient id="paint23_linear_303_1250" x1="246.862" y1="528.182" x2="344.673" y2="367.219" gradientUnits="userSpaceOnUse">
<stop stop-color="#C7283A"/>
<stop offset="1" stop-color="#EF4B4B"/>
</linearGradient>
<linearGradient id="paint24_linear_303_1250" x1="298.395" y1="433.263" x2="303.299" y2="416.492" gradientUnits="userSpaceOnUse">
<stop stop-color="#FFC0AC"/>
<stop offset="1" stop-color="#FFD6C7"/>
</linearGradient>
<linearGradient id="paint25_linear_303_1250" x1="183.886" y1="580.205" x2="191.106" y2="562.139" gradientUnits="userSpaceOnUse">
<stop stop-color="#FFC0AC"/>
<stop offset="1" stop-color="#FFD6C7"/>
</linearGradient>
<linearGradient id="paint26_linear_303_1250" x1="250.21" y1="578.544" x2="258.605" y2="563.67" gradientUnits="userSpaceOnUse">
<stop stop-color="#FFC0AC"/>
<stop offset="1" stop-color="#FFD6C7"/>
</linearGradient>
<linearGradient id="paint27_linear_303_1250" x1="234.629" y1="418.75" x2="264.964" y2="381.633" gradientUnits="userSpaceOnUse">
<stop stop-color="#C9E2F4"/>
<stop offset="1" stop-color="#EAF5FF"/>
</linearGradient>
<linearGradient id="paint28_linear_303_1250" x1="181.682" y1="575.98" x2="224.267" y2="575.98" gradientUnits="userSpaceOnUse">
<stop stop-color="#1D164D"/>
<stop offset="1" stop-color="#4A4975"/>
</linearGradient>
<linearGradient id="paint29_linear_303_1250" x1="299.883" y1="419.389" x2="509.864" y2="414.324" gradientUnits="userSpaceOnUse">
<stop stop-color="white"/>
<stop offset="1" stop-color="white" stop-opacity="0"/>
</linearGradient>
<linearGradient id="paint30_linear_303_1250" x1="246.279" y1="575.981" x2="288.864" y2="575.981" gradientUnits="userSpaceOnUse">
<stop stop-color="#1D164D"/>
<stop offset="1" stop-color="#4A4975"/>
</linearGradient>
<linearGradient id="paint31_linear_303_1250" x1="325.995" y1="389.22" x2="327.113" y2="363.875" gradientUnits="userSpaceOnUse">
<stop stop-color="#6BBC61"/>
<stop offset="1" stop-color="#A7DF63"/>
</linearGradient>
<linearGradient id="paint32_linear_303_1250" x1="466.591" y1="588.626" x2="383.049" y2="526.39" gradientUnits="userSpaceOnUse">
<stop stop-color="#1D164D"/>
<stop offset="1" stop-color="#4A4975"/>
</linearGradient>
<linearGradient id="paint33_linear_303_1250" x1="424.417" y1="396.271" x2="394.661" y2="356.007" gradientUnits="userSpaceOnUse">
<stop stop-color="#1D164D"/>
<stop offset="1" stop-color="#4A4975"/>
</linearGradient>
<linearGradient id="paint34_linear_303_1250" x1="478.9" y1="520.334" x2="395.175" y2="407.296" gradientUnits="userSpaceOnUse">
<stop stop-color="#C9E2F4"/>
<stop offset="1" stop-color="#EAF5FF"/>
</linearGradient>
<linearGradient id="paint35_linear_303_1250" x1="392.443" y1="379.178" x2="455.62" y2="383.407" gradientUnits="userSpaceOnUse">
<stop stop-color="#FF63DE"/>
<stop offset="1" stop-color="#B122E5"/>
</linearGradient>
<linearGradient id="paint36_linear_303_1250" x1="417.793" y1="380.907" x2="409.445" y2="368.418" gradientUnits="userSpaceOnUse">
<stop stop-color="#FFC0AC"/>
<stop offset="1" stop-color="#FFD6C7"/>
</linearGradient>
<linearGradient id="paint37_linear_303_1250" x1="385.847" y1="478.774" x2="390.076" y2="382.268" gradientUnits="userSpaceOnUse">
<stop stop-color="#C9E2F4"/>
<stop offset="1" stop-color="#EAF5FF"/>
</linearGradient>
<linearGradient id="paint38_linear_303_1250" x1="358.275" y1="436.934" x2="356.065" y2="427.015" gradientUnits="userSpaceOnUse">
<stop stop-color="#FFC0AC"/>
<stop offset="1" stop-color="#FFD6C7"/>
</linearGradient>
<linearGradient id="paint39_linear_303_1250" x1="399.262" y1="580.372" x2="414.202" y2="580.372" gradientUnits="userSpaceOnUse">
<stop stop-color="#FFC0AC"/>
<stop offset="1" stop-color="#FFD6C7"/>
</linearGradient>
<linearGradient id="paint40_linear_303_1250" x1="460.086" y1="580.372" x2="479.936" y2="580.372" gradientUnits="userSpaceOnUse">
<stop stop-color="#FFC0AC"/>
<stop offset="1" stop-color="#FFD6C7"/>
</linearGradient>
<linearGradient id="paint41_linear_303_1250" x1="411.081" y1="584.927" x2="453.666" y2="584.927" gradientUnits="userSpaceOnUse">
<stop stop-color="#1D164D"/>
<stop offset="1" stop-color="#4A4975"/>
</linearGradient>
<linearGradient id="paint42_linear_303_1250" x1="520.6" y1="584.927" x2="563.185" y2="584.927" gradientUnits="userSpaceOnUse">
<stop stop-color="#1D164D"/>
<stop offset="1" stop-color="#4A4975"/>
</linearGradient>
<linearGradient id="paint43_linear_303_1250" x1="520.6" y1="584.927" x2="563.185" y2="584.927" gradientUnits="userSpaceOnUse">
<stop stop-color="#1D164D"/>
<stop offset="1" stop-color="#4A4975"/>
</linearGradient>
<linearGradient id="paint44_linear_303_1250" x1="641.346" y1="346.732" x2="602.811" y2="329.718" gradientUnits="userSpaceOnUse">
<stop stop-color="#B7C0E2"/>
<stop offset="1" stop-color="#B7C0E2" stop-opacity="0"/>
</linearGradient>
<linearGradient id="paint45_linear_303_1250" x1="556.733" y1="314.639" x2="511.097" y2="309.178" gradientUnits="userSpaceOnUse">
<stop stop-color="#1D164D"/>
<stop offset="1" stop-color="#4A4975"/>
</linearGradient>
<linearGradient id="paint46_linear_303_1250" x1="547.075" y1="350.58" x2="516.335" y2="333.343" gradientUnits="userSpaceOnUse">
<stop stop-color="#FFC0AC"/>
<stop offset="1" stop-color="#FFD6C7"/>
</linearGradient>
<linearGradient id="paint47_linear_303_1250" x1="539.475" y1="410.423" x2="612.013" y2="454.676" gradientUnits="userSpaceOnUse">
<stop stop-color="#1D164D"/>
<stop offset="1" stop-color="#4A4975"/>
</linearGradient>
<linearGradient id="paint48_linear_303_1250" x1="499.6" y1="415.45" x2="587.984" y2="422.487" gradientUnits="userSpaceOnUse">
<stop stop-color="#1D164D"/>
<stop offset="1" stop-color="#4A4975"/>
</linearGradient>
<linearGradient id="paint49_linear_303_1250" x1="518.149" y1="353.066" x2="536.904" y2="426.789" gradientUnits="userSpaceOnUse">
<stop stop-color="#FFB965"/>
<stop offset="1" stop-color="#FF8A5F"/>
</linearGradient>
</defs>
</svg>
